<?xml version="1.0" encoding="utf-8"?>
<!-- Generator: Adobe Illustrator 24.3.0, SVG Export Plug-In . SVG Version: 6.00 Build 0)  -->
<svg version="1.1" id="Capa_1" xmlns="http://www.w3.org/2000/svg" xmlns:xlink="http://www.w3.org/1999/xlink" x="0px" y="0px"
	 viewBox="0 0 274.14 112.25" style="enable-background:new 0 0 274.14 112.25;" xml:space="preserve">
<style type="text/css">
	.st0{fill:#FFFFFF;stroke:#000000;stroke-width:0.25;stroke-miterlimit:10;}
	.st1{fill:#FFFFFF;}
	.st2{font-family:'Montserrat-SemiBold';}
	.st3{font-size:13px;}
	.st4{font-family:'Montserrat-Light';}
	.st5{font-size:8.8582px;}
	.st6{font-family:'Montserrat-Black';}
</style>
<path class="st0" d="M269.01,112.25H5.12c-2.75,0-5-2.25-5-5v-102c0-2.75,2.25-5,5-5h263.89c2.75,0,5,2.25,5,5v102
	C274.01,110,271.76,112.25,269.01,112.25z"/>
<g>
	<path class="st1" d="M268.24,107.08H5.89c-0.51,0-0.93-0.42-0.93-0.93V6.36c0-0.51,0.42-0.93,0.93-0.93h262.35
		c0.51,0,0.93,0.42,0.93,0.93v99.79C269.18,106.66,268.76,107.08,268.24,107.08z"/>
	<path d="M268.24,107.58H5.89c-0.79,0-1.43-0.64-1.43-1.43V6.36c0-0.79,0.64-1.43,1.43-1.43h262.35c0.79,0,1.43,0.64,1.43,1.43
		v99.79C269.68,106.93,269.03,107.58,268.24,107.58z M5.89,5.92c-0.24,0-0.43,0.19-0.43,0.43v99.79c0,0.24,0.19,0.43,0.43,0.43
		h262.35c0.24,0,0.43-0.19,0.43-0.43V6.36c0-0.24-0.19-0.43-0.43-0.43H5.89z"/>
</g>



<g>
	<g>
		<path d="M33.63,27.67l2.4,3.32l-0.23,0.27l0.02,1.35l6.62,12.95c0,0-0.35,0.58,0.15,1.03c0.5,0.45,2.82,2.82,2.82,2.82
			s-0.82,3.86,2.32,4.77c0,0,6.58,2.17,12.31-5.54c0,0,0.44-0.73-3.09,0.02l-3.13-2.06l-1.71,0.28l-4.1-3.06l-6.17-13.04
			l17.52-11.95l5.02,5.53h69.68l-3.22-5.1H66.36l-6.73-6.84l-2.05,1.44l0-1.12h-2.64l0.02,0.78L39.1,24.88l-0.96-1.98l-4.51,3.97
			V27.67z M65.24,19.27h-1.91l-2.01-1.91l0.84-0.04l-2.52-2.5L40.5,28l-0.22-0.46l19.37-13.81L65.24,19.27z M44.06,45.8l1.66-1.71
			l0.96,1.28l-0.71,2.35L44.06,45.8z M38.42,34.56l6.75,8.73l-1.95,1.91L38.42,34.56z M37.5,24.88l0.44,0.81l-2.36,1.81l0,0.1
			l10.11,15.06L34.65,27.46l0-0.17L37.5,24.88z"/>
		<g>
			<polygon points="133.52,19.26 136.79,24.32 135.25,24.32 131.98,19.26 			"/>
			<polygon points="136.22,19.26 139.49,24.32 137.95,24.32 134.69,19.26 			"/>
			<polygon points="138.92,19.26 142.19,24.32 140.66,24.32 137.39,19.26 			"/>
		</g>
	</g>
	<g>
		<path d="M54,27.36c-0.86,0.21-1.62,0.62-2.26,1.22c-0.64,0.6-1.19,1.42-1.62,2.45c-0.43,1.02-0.78,2.36-1.04,4
			c-0.26,1.63-0.35,2.98-0.25,4c0.1,1.03,0.38,1.85,0.83,2.44c0.45,0.58,1.08,1,1.87,1.21c0.77,0.21,1.7,0.31,2.77,0.31h6.84
			l0.61-3.76h-6.82c-0.45,0-0.84-0.06-1.13-0.17c-0.29-0.11-0.49-0.31-0.63-0.61c-0.14-0.3-0.21-0.73-0.21-1.27
			c0-0.56,0.07-1.28,0.21-2.15c0.14-0.87,0.3-1.6,0.49-2.15c0.17-0.54,0.38-0.98,0.62-1.28c0.23-0.3,0.5-0.5,0.81-0.61
			c0.33-0.12,0.73-0.17,1.2-0.17h6.82l0.61-3.77h-6.84C55.8,27.05,54.84,27.15,54,27.36z"/>
		<path d="M75.5,27.05h-4.34L61.4,43h4.33l1.81-3.03h7.5l0.8,2.95L75.87,43h4.22l-4.56-15.86L75.5,27.05z M74.08,36.45h-4.45
			l3.05-5.14L74.08,36.45z"/>
		<path d="M95.17,38.11c0.13-0.79,0.17-1.49,0.13-2.09c-0.05-0.61-0.2-1.12-0.47-1.52c-0.27-0.4-0.68-0.71-1.21-0.9
			c-0.53-0.19-1.21-0.28-2.03-0.28h-4.63c-0.4,0-0.66-0.09-0.78-0.26c-0.12-0.18-0.15-0.49-0.07-0.94c0.07-0.46,0.2-0.78,0.38-0.96
			c0.18-0.18,0.47-0.27,0.87-0.27h8.52l0.62-3.83h-9.31c-0.85,0-1.58,0.1-2.16,0.3c-0.6,0.2-1.11,0.51-1.51,0.91
			c-0.4,0.4-0.72,0.91-0.96,1.51c-0.23,0.58-0.41,1.28-0.54,2.06c-0.13,0.81-0.17,1.52-0.13,2.12c0.04,0.61,0.21,1.13,0.48,1.55
			c0.28,0.41,0.68,0.72,1.22,0.92c0.52,0.2,1.21,0.3,2.03,0.3h4.65c0.38,0,0.64,0.08,0.78,0.24c0.13,0.15,0.16,0.49,0.08,0.97
			c-0.07,0.47-0.21,0.8-0.39,0.99c-0.19,0.19-0.47,0.28-0.86,0.28h-8.9L80.35,43h9.66c0.84,0,1.56-0.1,2.14-0.31
			c0.59-0.21,1.1-0.52,1.51-0.93c0.41-0.41,0.73-0.93,0.97-1.55C94.86,39.61,95.04,38.9,95.17,38.11z"/>
		<path d="M108.07,27.05h-4.35L93.97,43h4.34l1.8-3.03h7.5l0.8,2.95l0.03,0.09h4.22l-4.56-15.86L108.07,27.05z M106.65,36.45h-4.45
			l3.05-5.14L106.65,36.45z"/>
		<path d="M124.96,27.36c-0.86,0.21-1.62,0.62-2.26,1.22c-0.64,0.6-1.18,1.42-1.62,2.45c-0.43,1.02-0.78,2.36-1.04,4
			c-0.26,1.63-0.35,2.98-0.25,4c0.1,1.03,0.38,1.85,0.83,2.44c0.45,0.58,1.08,1,1.87,1.21c0.77,0.21,1.7,0.31,2.77,0.31h6.84
			l0.61-3.76h-6.82c-0.45,0-0.83-0.06-1.13-0.17c-0.29-0.11-0.5-0.31-0.63-0.61c-0.15-0.3-0.22-0.73-0.22-1.27
			c0-0.56,0.08-1.28,0.21-2.15c0.14-0.87,0.3-1.6,0.48-2.15c0.18-0.54,0.39-0.98,0.63-1.28c0.23-0.3,0.51-0.5,0.82-0.61
			c0.33-0.12,0.73-0.17,1.19-0.17h6.82l0.61-3.77h-6.84C126.76,27.05,125.8,27.15,124.96,27.36z"/>
		<path d="M149.23,28.65c-0.46-0.67-1.19-1.16-2.16-1.46c-0.95-0.29-2.24-0.44-3.83-0.44c-1.59,0-2.93,0.15-3.98,0.44
			c-1.06,0.3-1.94,0.79-2.63,1.46c-0.68,0.67-1.22,1.55-1.59,2.6c-0.37,1.04-0.68,2.31-0.92,3.79c-0.24,1.49-0.35,2.76-0.31,3.8
			c0.04,1.05,0.29,1.92,0.76,2.59c0.47,0.67,1.19,1.16,2.16,1.46c0.96,0.29,2.25,0.44,3.83,0.44c1.58,0,2.92-0.15,3.97-0.44
			c1.07-0.3,1.95-0.79,2.64-1.46c0.68-0.67,1.21-1.54,1.59-2.59c0.37-1.03,0.68-2.31,0.92-3.8c0.24-1.47,0.34-2.75,0.31-3.79
			C149.95,30.19,149.69,29.32,149.23,28.65z M143.15,39.3c-0.51,0.15-1.18,0.23-1.99,0.23c-0.8,0-1.45-0.08-1.91-0.23
			c-0.45-0.14-0.78-0.39-0.98-0.73c-0.2-0.34-0.3-0.8-0.29-1.37c0-0.59,0.08-1.32,0.21-2.17c0.14-0.85,0.31-1.59,0.49-2.18
			c0.18-0.56,0.42-1.02,0.73-1.36c0.31-0.33,0.72-0.58,1.21-0.73c0.51-0.15,1.18-0.23,1.99-0.23c0.81,0,1.45,0.08,1.91,0.23
			c0.45,0.15,0.78,0.39,0.98,0.73c0.2,0.34,0.3,0.8,0.3,1.36c-0.01,0.59-0.08,1.33-0.22,2.18c-0.14,0.86-0.3,1.58-0.48,2.17
			c-0.18,0.57-0.43,1.03-0.75,1.37C144.06,38.91,143.65,39.16,143.15,39.3z"/>
		<polygon points="156.5,27.05 152.36,27.05 149.78,43 162.79,43 163.39,39.29 154.52,39.29 		"/>
		<path d="M179.28,28.65c-0.46-0.67-1.19-1.16-2.16-1.46c-0.95-0.29-2.24-0.44-3.83-0.44c-1.59,0-2.93,0.15-3.98,0.44
			c-1.06,0.3-1.95,0.79-2.63,1.46c-0.68,0.67-1.21,1.55-1.59,2.6c-0.37,1.04-0.68,2.31-0.92,3.79c-0.24,1.49-0.34,2.76-0.3,3.8
			c0.03,1.05,0.29,1.92,0.75,2.59c0.47,0.67,1.19,1.16,2.16,1.46c0.96,0.29,2.25,0.44,3.83,0.44c1.59,0,2.92-0.15,3.97-0.44
			c1.07-0.3,1.95-0.79,2.64-1.46c0.68-0.67,1.22-1.54,1.59-2.59c0.37-1.03,0.68-2.31,0.92-3.8c0.24-1.47,0.34-2.75,0.31-3.79
			C180,30.19,179.75,29.32,179.28,28.65z M173.21,39.3c-0.51,0.15-1.18,0.23-1.99,0.23c-0.81,0-1.45-0.08-1.92-0.23
			c-0.45-0.14-0.77-0.39-0.98-0.73c-0.2-0.34-0.3-0.8-0.3-1.37c0.01-0.59,0.08-1.32,0.22-2.17c0.14-0.85,0.3-1.59,0.49-2.18
			c0.18-0.56,0.42-1.02,0.74-1.36c0.31-0.33,0.72-0.58,1.21-0.73c0.51-0.15,1.18-0.23,1.99-0.23c0.81,0,1.45,0.08,1.91,0.23
			c0.45,0.15,0.78,0.39,0.98,0.73c0.2,0.34,0.3,0.8,0.3,1.36c-0.01,0.59-0.08,1.33-0.22,2.18c-0.13,0.86-0.3,1.58-0.48,2.17
			c-0.18,0.57-0.43,1.03-0.74,1.37C174.12,38.91,173.71,39.16,173.21,39.3z"/>
		<polygon points="190.1,37.94 187.79,27.05 182.42,27.05 179.83,43 183.64,43 185.21,33.29 187.3,43 191.27,43 196.53,33.32 
			194.96,43 198.77,43 201.35,27.05 196.06,27.05 		"/>
		<path d="M215.53,34.76c0.37-0.31,0.7-0.7,0.97-1.17c0.32-0.54,0.55-1.23,0.69-2.07c0.14-0.9,0.12-1.66-0.06-2.24
			c-0.19-0.58-0.5-1.06-0.94-1.39c-0.44-0.33-0.98-0.56-1.63-0.68c-0.64-0.11-1.35-0.17-2.1-0.17h-9.14L200.75,43h9.14
			c0.81,0,1.58-0.06,2.3-0.18c0.73-0.12,1.38-0.36,1.93-0.71c0.57-0.35,1.05-0.83,1.44-1.44c0.38-0.61,0.66-1.4,0.81-2.36
			c0.16-0.96,0.14-1.74-0.05-2.33C216.14,35.46,215.88,35.05,215.53,34.76z M205.87,36.33h5.24c0.47,0,0.82,0.1,1.06,0.3
			c0.22,0.19,0.28,0.58,0.19,1.16c-0.05,0.31-0.13,0.56-0.24,0.75c-0.1,0.19-0.23,0.34-0.38,0.45c-0.15,0.11-0.33,0.19-0.52,0.24
			c-0.2,0.04-0.42,0.07-0.64,0.07h-5.19L205.87,36.33z M212.66,33.08c-0.27,0.21-0.66,0.32-1.14,0.32h-5.17l0.46-2.82h5.13
			c0.43,0,0.77,0.1,1.02,0.31c0.24,0.19,0.31,0.57,0.22,1.14C213.1,32.52,212.92,32.87,212.66,33.08z"/>
		<polygon points="216.95,43 221.1,43 223.68,27.05 219.53,27.05 		"/>
		<path d="M235.95,27.14l-0.03-0.09h-4.35L221.82,43h4.34l1.8-3.03h7.5l0.8,2.95l0.03,0.09h4.22L235.95,27.14z M234.5,36.45h-4.45
			l3.05-5.14L234.5,36.45z"/>
	</g>
	<g>
		<polygon points="147.51,19.64 146.91,19.64 146.16,23.91 146.76,23.91 		"/>
		<polygon points="152.6,20.88 153.7,23.9 154.14,23.9 156.3,20.88 155.77,23.9 156.38,23.9 157.13,19.62 156.54,19.62 
			154.07,23.06 152.82,19.62 152.22,19.62 151.47,23.9 152.07,23.9 		"/>
		<path d="M162.44,22.17h1.45c0.46,0,0.86-0.09,1.21-0.26c0.45-0.22,0.71-0.55,0.79-0.99c0.15-0.86-0.34-1.28-1.48-1.28h-2.12
			l-0.75,4.27h0.61L162.44,22.17z M162.79,20.19h1.56c0.71,0,1.01,0.25,0.92,0.74c-0.03,0.22-0.17,0.39-0.39,0.51
			c-0.22,0.12-0.47,0.18-0.77,0.18h-1.56L162.79,20.19z"/>
		<path d="M172.37,23.96c0.74,0,1.36-0.2,1.87-0.59c0.5-0.39,0.81-0.92,0.93-1.59c0.12-0.67-0.01-1.2-0.38-1.58
			c-0.37-0.37-0.92-0.55-1.66-0.55c-0.74,0-1.36,0.18-1.84,0.55c-0.51,0.38-0.82,0.91-0.94,1.58c-0.12,0.67,0,1.21,0.36,1.6
			C171.08,23.76,171.63,23.96,172.37,23.96z M171.63,20.61c0.36-0.27,0.83-0.41,1.4-0.41c0.58,0,1,0.14,1.26,0.41
			c0.27,0.27,0.36,0.67,0.27,1.17c-0.09,0.51-0.32,0.91-0.69,1.2c-0.36,0.29-0.84,0.43-1.41,0.43c-0.56,0-0.98-0.15-1.24-0.43
			c-0.26-0.29-0.35-0.69-0.26-1.2C171.05,21.28,171.28,20.89,171.63,20.61z"/>
		<path d="M180.49,22.12h1.54c0.69,0,1,0.22,0.92,0.66l-0.2,1.13h0.61l0.2-1.15c0.07-0.41-0.04-0.72-0.33-0.93
			c0.4-0.22,0.65-0.55,0.73-1c0.14-0.79-0.34-1.18-1.43-1.18h-2.21l-0.75,4.27h0.61L180.49,22.12z M180.83,20.19h1.61
			c0.69,0,0.99,0.22,0.92,0.65c-0.05,0.25-0.19,0.43-0.43,0.56c-0.22,0.11-0.49,0.17-0.83,0.17h-1.51L180.83,20.19z"/>
		<polygon points="189.59,23.91 190.2,23.91 190.85,20.19 192.49,20.19 192.59,19.64 188.71,19.64 188.61,20.19 190.25,20.19 		"/>
		<path d="M197.47,22.66h2.11l0.39,1.26h0.66l-1.31-4.27h-0.48l-2.9,4.27h0.68L197.47,22.66z M198.92,20.53l0.49,1.58h-1.57
			L198.92,20.53z"/>
		<path d="M208.62,23.38c0.54-0.38,0.87-0.91,0.99-1.6c0.12-0.67,0.02-1.18-0.29-1.56c-0.33-0.39-0.86-0.58-1.61-0.58h-1.86
			l-0.75,4.27h1.62C207.48,23.91,208.11,23.74,208.62,23.38z M206.37,20.19h1.25c0.57,0,0.97,0.14,1.2,0.42
			c0.22,0.26,0.28,0.66,0.19,1.18c-0.09,0.52-0.32,0.92-0.69,1.18c-0.38,0.27-0.86,0.4-1.47,0.4h-1.03L206.37,20.19z"/>
		<path d="M218.74,20.21c-0.37-0.37-0.92-0.55-1.66-0.55c-0.74,0-1.35,0.18-1.84,0.55c-0.51,0.38-0.82,0.91-0.94,1.58
			c-0.12,0.67,0,1.21,0.37,1.6c0.36,0.39,0.91,0.58,1.66,0.58c0.74,0,1.36-0.2,1.87-0.59c0.5-0.39,0.81-0.92,0.93-1.59
			C219.24,21.11,219.12,20.58,218.74,20.21z M217.83,22.98c-0.37,0.29-0.84,0.43-1.41,0.43c-0.57,0-0.99-0.15-1.25-0.43
			c-0.26-0.29-0.35-0.69-0.26-1.2c0.09-0.5,0.31-0.89,0.67-1.17c0.36-0.27,0.83-0.41,1.4-0.41c0.58,0,1,0.14,1.26,0.41
			c0.27,0.27,0.36,0.67,0.27,1.17C218.43,22.29,218.2,22.69,217.83,22.98z"/>
		<path d="M224.44,22.12h1.54c0.69,0,1,0.22,0.92,0.66l-0.2,1.13h0.6l0.2-1.15c0.07-0.41-0.04-0.72-0.33-0.93
			c0.4-0.22,0.65-0.55,0.73-1c0.14-0.79-0.34-1.18-1.44-1.18h-2.2l-0.75,4.27h0.61L224.44,22.12z M224.79,20.19h1.61
			c0.68,0,0.99,0.22,0.91,0.65c-0.04,0.25-0.19,0.43-0.43,0.56c-0.22,0.11-0.49,0.17-0.83,0.17h-1.51L224.79,20.19z"/>
		<path d="M235.42,22.66l0.39,1.26h0.66l-1.32-4.27h-0.47l-2.89,4.27h0.68l0.85-1.26H235.42z M234.76,20.53l0.49,1.58h-1.56
			L234.76,20.53z"/>
	</g>
	<g>
		<g>
			<rect x="60.08" y="46.79" width="178.02" height="0.19"/>
		</g>
		<g>
			<rect x="57.21" y="45.83" width="183" height="0.19"/>
		</g>
	</g>
</g>

<text id="campo_producto" x="168" y="79" text-anchor="middle" dominant-baseline="middle" font-family="Montserrat, Arial, sans-serif" font-size="13.5" font-weight="700" fill="#000000">{{PRODUCTO}}</text>
<text id="campo_serial" x="168" y="93" text-anchor="middle" dominant-baseline="middle" font-family="Montserrat, Arial, sans-serif" font-size="14" font-weight="900" fill="#000000">{{SERIAL}}</text>
<text id="campo_tipo" x="263" y="101" text-anchor="end" dominant-baseline="middle" font-family="Montserrat, Arial, sans-serif" font-size="8.5" font-weight="600" fill="#000000">{{TIPO}}</text>
</svg>
