<?xml version="1.0" encoding="utf-8"?>
<!-- Generator: Adobe Illustrator 24.3.0, SVG Export Plug-In . SVG Version: 6.00 Build 0)  -->
<svg version="1.1" id="Capa_1" xmlns="http://www.w3.org/2000/svg" xmlns:xlink="http://www.w3.org/1999/xlink" x="0px" y="0px"
	 viewBox="0 0 325.98 198.43" style="enable-background:new 0 0 325.98 198.43;" xml:space="preserve">
<style type="text/css">
	.st0{clip-path:url(#SVGID_2_);}
	.st1{clip-path:url(#SVGID_4_);}
	.st2{fill-rule:evenodd;clip-rule:evenodd;fill:#010202;}
	.st3{fill:none;stroke:#010202;stroke-width:0.25;stroke-miterlimit:10;}
	.st4{fill:#FFFFFF;}
	.st5{font-family:'MS-Gothic';}
	.st6{font-size:7.8853px;}
	.st7{font-family:'MicrosoftJhengHeiRegular';}
	.st8{font-family:'Calibri';}
	.st9{font-size:12.9295px;}
	.st10{fill:none;}
	.st11{fill-rule:evenodd;clip-rule:evenodd;fill:#FFFFFF;}
	.st12{font-family:'ArialNarrow';}
	.st13{font-size:16px;}
</style>
<g>
	<g>
		<defs>
			<rect id="SVGID_1_" x="132.26" y="264.82" width="69.45" height="1.36"/>
		</defs>
		<clipPath id="SVGID_2_">
			<use xlink:href="#SVGID_1_"  style="overflow:visible;"/>
		</clipPath>
		<g class="st0">
			<g>
				<defs>
					<rect id="SVGID_3_" x="132.26" y="264.82" width="69.45" height="1.36"/>
				</defs>
				<clipPath id="SVGID_4_">
					<use xlink:href="#SVGID_3_"  style="overflow:visible;"/>
				</clipPath>
				<g class="st1">
					<text transform="matrix(1.0385 0 0 1 141.1992 278.3243)" style="fill:#BFBEBE; font-family:'SimSun'; font-size:10.2362px;">发动机功率</text>
					
						<text transform="matrix(1.0385 0 0 1 141.1992 278.3243)" style="fill:none;stroke:#BFBEBE;stroke-width:0.2925;stroke-miterlimit:10; font-family:'SimSun'; font-size:10.2362px;">发动机功率</text>
				</g>
			</g>
		</g>
	</g>
</g>
<polyline class="st2" points="221.86,509.45 221.86,510.01 223.01,510.01 223.01,509.45 221.86,509.45 "/>
<path class="st2" d="M313.41,194.08H12.57c-4.32,0-7.86-3.54-7.86-7.86v-174c0-4.32,3.54-7.86,7.86-7.86h300.84
	c4.32,0,7.86,3.54,7.86,7.86v174C321.28,190.54,317.74,194.08,313.41,194.08z"/>
<path class="st3" d="M318.06,198.5H7.93c-4.32,0-7.86-3.54-7.86-7.86V7.79c0-4.32,3.54-7.86,7.86-7.86h310.13
	c4.32,0,7.86,3.54,7.86,7.86v182.85C325.92,194.96,322.38,198.5,318.06,198.5z"/>
<text transform="matrix(1.0385 0 0 1 29.9668 61.6515)" class="st4 st5 st6">型</text>
<g>
	<g>
		<path class="st4" d="M55.04,60.63c0.36-0.62,0.63-1.18,0.8-1.69h-2.05v-0.58h7.39v0.58h-4.61c-0.09,0.25-0.17,0.46-0.26,0.65h3.81
			c-0.17,1.23-0.41,2.04-0.7,2.43c-0.17,0.21-0.49,0.29-0.96,0.25l-0.86-0.09l-0.03-0.68l0.99,0.09c0.21,0.02,0.37-0.08,0.48-0.31
			c0.04-0.1,0.14-0.47,0.29-1.11h-3.2c-0.08,0.21-0.2,0.43-0.35,0.68L55.04,60.63z M59.2,57.89v-0.22h-3.42v0.28h-0.64v-2.46h4.7
			v2.4H59.2z M55.77,56.08v1.02h3.42v-1.02H55.77z"/>
	</g>
</g>
<g>
	<path class="st4" d="M39.59,69.88c0-1,0.02-2,0.03-2.57h-0.01c-0.2,0.93-0.71,3.16-1.15,4.85h-0.59c-0.33-1.47-0.86-3.87-1.07-4.86
		h-0.02c0.03,0.62,0.06,1.8,0.06,2.72v2.14h-0.58V66.8h0.91c0.45,1.68,0.89,3.73,1.02,4.42h0.01c0.1-0.58,0.65-2.81,1.09-4.42h0.9
		v5.36h-0.6V69.88z"/>
	<path class="st4" d="M43.43,70.11c0,1.41-0.49,2.12-1.43,2.12c-0.96,0-1.43-0.69-1.43-2.11c0-1.39,0.56-2.03,1.45-2.03
		C42.94,68.09,43.43,68.77,43.43,70.11z M41.19,70.13c0,1.09,0.28,1.6,0.82,1.6s0.81-0.52,0.81-1.61c0-1.02-0.26-1.53-0.81-1.53
		C41.48,68.6,41.19,69.05,41.19,70.13z"/>
	<path class="st4" d="M46.85,66.54v4.59c0,0.39,0,0.79,0.01,1.03h-0.58c-0.01-0.1-0.02-0.37-0.02-0.54
		c-0.13,0.35-0.39,0.61-0.98,0.61c-0.86,0-1.23-0.71-1.23-2.11c0-1.28,0.49-2.02,1.36-2.02c0.54,0,0.75,0.22,0.84,0.42v-1.97h0.6
		V66.54z M44.66,70.12c0,1.15,0.27,1.59,0.78,1.59c0.64,0,0.82-0.53,0.82-1.62c0-1.17-0.17-1.5-0.77-1.5
		C44.99,68.61,44.66,69.02,44.66,70.12z"/>
	<path class="st4" d="M48.27,70.27c0,0.78,0.14,1.47,0.8,1.47c0.65,0,0.74-0.59,0.76-0.72h0.59c-0.01,0.1-0.13,1.21-1.35,1.21
		c-1.22,0-1.39-1.08-1.39-2.08c0-1.27,0.45-2.07,1.43-2.07c1.09,0,1.35,0.87,1.35,1.87c0,0.08,0,0.21-0.01,0.31h-2.18V70.27z
		 M49.85,69.81c0-0.69-0.15-1.23-0.76-1.23c-0.76,0-0.8,0.95-0.81,1.23H49.85z"/>
	<path class="st4" d="M51.5,72.16v-5.62h0.6v5.62H51.5z"/>
</g>
<g>
	<text transform="matrix(1.0385 0 0 1 22.8945 89.5109)" class="st4 st7 st6">发</text>
</g>
<g>
	<g>
		<path class="st4" d="M36.82,88.93l-0.37,0.18c-0.05-0.14-0.11-0.29-0.2-0.46c-0.72,0.24-1.64,0.5-2.75,0.75l-0.15-0.33
			c0.55-0.92,1-2.03,1.36-3.33h-1.45v-0.4h3.51v0.4h-1.62c-0.43,1.42-0.85,2.48-1.24,3.15c0.8-0.18,1.52-0.38,2.15-0.6
			c-0.13-0.27-0.34-0.65-0.63-1.14l0.35-0.17C36.24,87.69,36.58,88.34,36.82,88.93z M36.5,83.57h-2.93v-0.41h2.93V83.57z
			 M40.15,84.69c-0.02,1.06-0.07,2.06-0.14,2.99s-0.15,1.49-0.22,1.69c-0.08,0.2-0.18,0.34-0.33,0.43c-0.15,0.08-0.38,0.12-0.7,0.12
			c-0.14,0-0.29-0.01-0.44-0.02l-0.17-0.4c0.1,0.01,0.22,0.01,0.38,0.01c0.37,0,0.6-0.02,0.69-0.07s0.16-0.13,0.2-0.24
			c0.05-0.11,0.1-0.61,0.17-1.49s0.11-1.76,0.13-2.61h-1.51c-0.05,1.36-0.19,2.38-0.43,3.05c-0.24,0.67-0.6,1.27-1.08,1.8
			l-0.33-0.25c0.44-0.52,0.77-1.09,1-1.71s0.36-1.58,0.4-2.88h-1V84.7h1.02c0.03-0.59,0.05-1.14,0.04-1.65l0.44,0.02
			c0,0.52-0.02,1.07-0.05,1.62L40.15,84.69L40.15,84.69z"/>
	</g>
</g>
<text transform="matrix(1.0385 0 0 1 35.207 89.5109)" class="st4 st8 st6"> </text>
<g>
	<g>
		<path class="st4" d="M45.17,90.16h-0.64v-3.14c-0.3,0.66-0.67,1.22-1.12,1.69l-0.42-0.68c0.85-0.84,1.34-1.71,1.47-2.62h-1.28
			v-0.58h1.34V83.2h0.61c0.21,0.02,0.22,0.08,0.03,0.18v1.45h1.12v0.58h-1.12v0.92c0.38,0.17,0.77,0.39,1.15,0.68l-0.35,0.71
			c-0.26-0.27-0.52-0.51-0.8-0.74L45.17,90.16L45.17,90.16z M45.36,89.57c0.79-0.35,1.18-1.12,1.18-2.31v-3.54h2.5v5.33
			c0,0.16,0.07,0.25,0.22,0.25h0.19c0.11,0,0.17-0.07,0.19-0.22l0.06-0.65l0.67,0.25l-0.13,0.77c-0.04,0.29-0.21,0.43-0.51,0.43
			h-0.77c-0.38,0-0.58-0.17-0.58-0.52v-5.05h-1.22v2.93c0,1.48-0.46,2.45-1.38,2.93L45.36,89.57z"/>
	</g>
</g>
<text transform="matrix(1.0385 0 0 1 45.582 89.5109)" class="st4 st8 st6"> </text>
<g>
	<g>
		<path class="st4" d="M55.28,84.67v2.74l1.28-0.34l0.06,0.65l-2.81,0.83c-0.02,0.17-0.08,0.21-0.16,0.12l-0.26-0.8l1.25-0.31v-2.9
			h-1.06v-0.58h2.81v0.58L55.28,84.67L55.28,84.67z M58.38,89.94l-0.06-0.68h0.74c0.28,0,0.43-0.29,0.45-0.86l0.16-2.93h-1.31
			c0.08,2.46-1.03,3.99-3.36,4.59l-0.22-0.71c2.05-0.51,3.03-1.81,2.94-3.88h-1.38v-0.58h1.38V83.2h0.61
			c0.17,0.02,0.18,0.08,0.03,0.18v1.51h2.02l-0.19,3.67c-0.04,0.92-0.32,1.39-0.83,1.39L58.38,89.94L58.38,89.94z"/>
	</g>
</g>
<g>
	<path class="st4" d="M208.03,83.32c0.21,0.04,0.22,0.12,0.03,0.25v3.76l1.92-0.22l0.1,0.71L208.06,88v2.09h-0.74v-2l-3.93,0.46
		l-0.1-0.74l4.03-0.4v-4.1h0.71V83.32z M204.12,86.34l0.38-0.74c0.62,0.21,1.22,0.46,1.79,0.77l-0.42,0.77
		C205.45,86.85,204.87,86.58,204.12,86.34z M204.44,84.58l0.35-0.71c0.68,0.25,1.27,0.52,1.76,0.83l-0.38,0.74
		C205.66,85.1,205.08,84.81,204.44,84.58z"/>
	<path class="st4" d="M215.6,85.63c1.04,1.03,2.22,1.68,3.52,1.97l-0.19,0.71c-0.66-0.18-1.14-0.37-1.44-0.55v2.34h-0.64v-0.18
		h-2.97v0.31h-0.64v-2.31c-0.43,0.29-0.83,0.48-1.22,0.58l-0.29-0.65c1.66-0.62,2.78-1.51,3.36-2.68l0.67,0.21
		c0.08,0.08,0.05,0.13-0.1,0.15L215.6,85.63z M218.07,84.49h-5.44v0.89h-0.64V83.9h2.97v-0.77h0.7c0.17,0.02,0.18,0.08,0.03,0.18
		v0.59h3.01v1.42h-0.64v-0.83H218.07z M212.18,86.06c0.62-0.21,1.23-0.63,1.82-1.26l0.48,0.43c0.13,0.1,0.08,0.15-0.13,0.15
		c-0.68,0.64-1.29,1.06-1.82,1.26L212.18,86.06z M215.28,86.09c-0.43,0.6-0.98,1.12-1.66,1.57h3.71
		C216.54,87.27,215.86,86.75,215.28,86.09z M216.85,89.33v-1.08h-2.97v1.08H216.85z M218.67,85.97l-0.29,0.62
		c-0.75-0.27-1.43-0.66-2.05-1.17l0.38-0.46C217.21,85.32,217.86,85.66,218.67,85.97z"/>
</g>
<g>
	<path class="st4" d="M25.76,97.45H23.9v2.05h2.06l-0.08,0.52H23.3v-5.36h2.55v0.53H23.9v1.74h1.86V97.45z"/>
	<path class="st4" d="M26.43,97.26c0-0.82-0.01-1.05-0.01-1.24H27c0.01,0.1,0.02,0.26,0.02,0.52c0.14-0.31,0.42-0.59,0.98-0.59
		c0.6,0,1.07,0.33,1.07,1.22v2.85h-0.6v-2.74c0-0.49-0.17-0.82-0.64-0.82c-0.56,0-0.8,0.35-0.8,1.17v2.38h-0.6V97.26z"/>
	<path class="st4" d="M32.72,99.77c0,1.05-0.26,1.79-1.46,1.79c-1.07,0-1.3-0.67-1.33-1.1h0.61c0.02,0.22,0.15,0.61,0.74,0.61
		c0.7,0,0.84-0.49,0.84-1.3V99.4c-0.15,0.41-0.5,0.61-0.97,0.61c-0.84,0-1.25-0.68-1.25-1.94c0-1.44,0.55-2.11,1.34-2.11
		c0.56,0,0.8,0.26,0.88,0.52c0-0.18,0.02-0.37,0.03-0.46h0.57c-0.01,0.21-0.01,0.61-0.01,1.15L32.72,99.77L32.72,99.77z
		 M30.52,98.06c0,0.97,0.28,1.44,0.79,1.44c0.64,0,0.82-0.61,0.82-1.54c0-0.94-0.13-1.49-0.77-1.49
		C30.82,96.47,30.52,97.02,30.52,98.06z"/>
	<path class="st4" d="M33.68,96.02h0.6v4h-0.6V96.02z M33.68,94.41h0.6v0.83h-0.6V94.41z"/>
	<path class="st4" d="M35.57,97.26c0-0.82-0.01-1.05-0.01-1.24h0.58c0.01,0.1,0.02,0.26,0.02,0.52c0.14-0.31,0.42-0.59,0.98-0.59
		c0.6,0,1.07,0.33,1.07,1.22v2.85h-0.6v-2.74c0-0.49-0.17-0.82-0.64-0.82c-0.56,0-0.8,0.35-0.8,1.17v2.38h-0.6
		C35.57,100.01,35.57,97.26,35.57,97.26z"/>
	<path class="st4" d="M39.65,98.13c0,0.78,0.14,1.47,0.8,1.47c0.65,0,0.74-0.59,0.76-0.72h0.59c-0.01,0.1-0.13,1.21-1.35,1.21
		c-1.22,0-1.39-1.08-1.39-2.08c0-1.27,0.45-2.07,1.43-2.07c1.09,0,1.35,0.87,1.35,1.87c0,0.08,0,0.21-0.01,0.31h-2.18V98.13z
		 M41.23,97.68c0-0.69-0.15-1.23-0.76-1.23c-0.76,0-0.8,0.95-0.81,1.23H41.23z"/>
	<path class="st4" d="M44.28,94.67h1.43c0.87,0,1.48,0.53,1.48,1.49c0,0.95-0.54,1.55-1.57,1.55h-0.74v2.32h-0.61v-5.36H44.28z
		 M44.89,97.21h0.67c0.67,0,1.01-0.34,1.01-1.06c0-0.59-0.32-0.99-0.94-0.99h-0.74C44.89,95.16,44.89,97.21,44.89,97.21z"/>
	<path class="st4" d="M50.55,97.98c0,1.41-0.49,2.12-1.43,2.12c-0.96,0-1.43-0.69-1.43-2.11c0-1.39,0.56-2.03,1.45-2.03
		C50.06,95.96,50.55,96.64,50.55,97.98z M48.31,97.99c0,1.09,0.28,1.6,0.82,1.6s0.81-0.52,0.81-1.61c0-1.02-0.26-1.53-0.81-1.53
		C48.6,96.46,48.31,96.91,48.31,97.99z"/>
	<path class="st4" d="M51.64,96.02c0.4,1.9,0.6,2.81,0.67,3.36h0.01c0.08-0.52,0.25-1.15,0.77-3.36h0.57
		c0.49,2.1,0.67,2.9,0.73,3.34h0.01c0.06-0.44,0.22-1.15,0.7-3.34h0.61l-1.02,4h-0.64c-0.3-1.31-0.61-2.61-0.7-3.23h-0.01
		c-0.08,0.6-0.38,1.77-0.74,3.23h-0.66l-0.95-4H51.64z"/>
	<path class="st4" d="M56.86,98.13c0,0.78,0.14,1.47,0.8,1.47c0.65,0,0.74-0.59,0.76-0.72H59c-0.01,0.1-0.13,1.21-1.35,1.21
		c-1.22,0-1.39-1.08-1.39-2.08c0-1.27,0.45-2.07,1.43-2.07c1.09,0,1.35,0.87,1.35,1.87c0,0.08,0,0.21-0.01,0.31h-2.17V98.13z
		 M58.43,97.68c0-0.69-0.15-1.23-0.76-1.23c-0.76,0-0.8,0.95-0.81,1.23H58.43z"/>
	<path class="st4" d="M60.08,97.39c0-0.64,0-1.08-0.01-1.36h0.58c0.01,0.1,0.02,0.29,0.02,0.71c0.18-0.48,0.58-0.77,1.1-0.77v0.64
		c-0.71,0.02-1.09,0.45-1.09,1.19v2.23h-0.6C60.08,100.03,60.08,97.39,60.08,97.39z"/>
</g>
<g>
	<path class="st4" d="M198.07,98.54c-0.02,0.31-0.17,1.56-1.51,1.56c-1.48,0-1.59-1.51-1.59-2.8c0-1.56,0.43-2.72,1.66-2.72
		c1.34,0,1.42,1.21,1.43,1.54h-0.62c-0.01-0.18-0.05-1.01-0.83-1.01c-0.88,0-1.01,1.15-1.01,2.2c0,1.13,0.13,2.27,0.97,2.27
		c0.74,0,0.85-0.77,0.88-1.04L198.07,98.54L198.07,98.54z"/>
	<path class="st4" d="M201.2,99.32c0,0.25,0.02,0.58,0.03,0.71h-0.55c-0.02-0.09-0.04-0.3-0.04-0.46c-0.15,0.33-0.47,0.53-0.98,0.53
		c-0.8,0-1.09-0.6-1.09-1.16c0-0.73,0.51-1.28,1.6-1.28c0.19,0,0.31,0,0.43,0.01v-0.53c0-0.31-0.06-0.71-0.62-0.71
		c-0.61,0-0.65,0.42-0.67,0.69h-0.58c0.02-0.57,0.3-1.16,1.27-1.16c0.81,0,1.19,0.38,1.19,1.12L201.2,99.32L201.2,99.32z
		 M200.62,98.13c-0.1-0.02-0.22-0.02-0.41-0.02c-0.74,0-1.04,0.34-1.04,0.79c0,0.37,0.2,0.71,0.65,0.71c0.61,0,0.8-0.41,0.8-1.26
		V98.13z"/>
	<path class="st4" d="M202.69,99.62v1.88h-0.6v-4.3c0-0.55,0-0.92-0.01-1.17h0.58c0.01,0.07,0.02,0.34,0.02,0.54
		c0.15-0.35,0.44-0.6,0.99-0.6c0.79,0,1.21,0.67,1.21,2.01c0,1.44-0.52,2.13-1.33,2.13C203.06,100.1,202.81,99.87,202.69,99.62z
		 M204.28,98c0-1.01-0.24-1.53-0.79-1.53c-0.64,0-0.82,0.59-0.82,1.53c0,0.95,0.09,1.58,0.78,1.58C204,99.59,204.28,98.98,204.28,98
		z"/>
	<path class="st4" d="M208.14,99.32c0,0.25,0.02,0.58,0.03,0.71h-0.55c-0.02-0.09-0.04-0.3-0.04-0.46
		c-0.15,0.33-0.47,0.53-0.98,0.53c-0.8,0-1.09-0.6-1.09-1.16c0-0.73,0.51-1.28,1.6-1.28c0.19,0,0.31,0,0.43,0.01v-0.53
		c0-0.31-0.06-0.71-0.62-0.71c-0.61,0-0.65,0.42-0.67,0.69h-0.58c0.02-0.57,0.3-1.16,1.27-1.16c0.81,0,1.19,0.38,1.19,1.12
		L208.14,99.32L208.14,99.32z M207.57,98.13c-0.1-0.02-0.22-0.02-0.41-0.02c-0.74,0-1.04,0.34-1.04,0.79c0,0.37,0.2,0.71,0.65,0.71
		c0.61,0,0.8-0.41,0.8-1.26V98.13z"/>
	<path class="st4" d="M211.53,98.8c-0.02,0.21-0.11,1.29-1.32,1.29c-1.09,0-1.38-0.92-1.38-2.08c0-1.12,0.38-2.06,1.43-2.06
		c1.21,0,1.26,1.07,1.27,1.26h-0.61c-0.01-0.16-0.06-0.76-0.66-0.76s-0.82,0.63-0.82,1.55c0,1,0.23,1.59,0.79,1.59
		c0.6,0,0.67-0.58,0.7-0.79H211.53z"/>
	<path class="st4" d="M212.06,96.02h0.6v4h-0.6V96.02z M212.06,94.41h0.6v0.83h-0.6V94.41z"/>
	<path class="st4" d="M213.44,96.02h0.59v-1.07h0.59v1.07h0.72v0.49h-0.72v2.62c0,0.27,0.06,0.45,0.38,0.45
		c0.1,0,0.22-0.01,0.29-0.02V100c-0.14,0.05-0.35,0.07-0.49,0.07c-0.49,0-0.77-0.19-0.77-0.82v-2.74h-0.59L213.44,96.02
		L213.44,96.02z"/>
	<path class="st4" d="M216.14,96.02c0.45,1.67,0.79,2.87,0.85,3.3H217c0.08-0.46,0.46-1.83,0.85-3.3h0.62l-1.22,4.2
		c-0.34,1.17-0.66,1.33-1.25,1.33c-0.09,0-0.21-0.01-0.29-0.03v-0.51c0.06,0.01,0.18,0.02,0.27,0.02c0.43,0,0.55-0.29,0.72-0.93
		l-1.22-4.08C215.48,96.02,216.14,96.02,216.14,96.02z"/>
</g>
<g>
	<g>
		<path class="st4" d="M30.71,114.66c-0.45-0.29-0.75-0.46-0.9-0.52v0.96h-0.54v-0.96c-0.36,0.37-0.87,0.7-1.54,0.99l-0.29-0.58
			c0.64-0.23,1.21-0.52,1.7-0.89h-1.12v-1.33h1.25v-0.37h-1.66v-0.49h1.66v-0.49h0.51c0.17,0.02,0.18,0.08,0.03,0.19v0.31h1.6v0.49
			h-1.6v0.37H31v1.33h-1.18c0.38,0.1,0.79,0.28,1.22,0.52L30.71,114.66z M31.45,116.33h2.01v0.49h-2.01v0.59h3.04v0.49h-6.91v-0.49
			h1.44v-1.23h0.51c0.17,0.02,0.18,0.08,0.03,0.18v1.05h1.34v-1.57h-2.88v-0.49h6.04v0.49h-2.62L31.45,116.33L31.45,116.33z
			 M29.28,113.28v-0.58h-0.8v0.58H29.28z M30.55,113.28v-0.58h-0.74v0.58H30.55z M32.41,111.92h2.11v0.49h-0.54
			c-0.11,0.64-0.31,1.14-0.61,1.51c0.3,0.25,0.77,0.43,1.41,0.55l-0.19,0.62c-0.68-0.18-1.23-0.44-1.63-0.77
			c-0.51,0.37-1.12,0.64-1.82,0.8l-0.26-0.55c0.68-0.16,1.22-0.38,1.6-0.65c-0.3-0.41-0.51-0.79-0.64-1.14
			c-0.11,0.25-0.27,0.48-0.48,0.71l-0.32-0.43c0.51-0.55,0.85-1.25,1.02-2.09l0.64,0.19c0.08,0.08,0.05,0.13-0.1,0.15L32.41,111.92z
			 M32.22,112.42c0.15,0.43,0.37,0.81,0.67,1.14c0.21-0.25,0.38-0.63,0.51-1.14H32.22z"/>
		<path class="st4" d="M38.32,118.02h-0.64v-3.14c-0.3,0.66-0.67,1.22-1.12,1.69l-0.42-0.68c0.85-0.84,1.34-1.71,1.47-2.62h-1.28
			v-0.58h1.34v-1.63h0.61c0.21,0.02,0.22,0.08,0.03,0.18v1.45h1.12v0.58h-1.12v0.92c0.38,0.17,0.77,0.39,1.15,0.68l-0.35,0.71
			c-0.26-0.27-0.52-0.51-0.8-0.74L38.32,118.02L38.32,118.02z M38.52,117.44c0.79-0.35,1.18-1.12,1.18-2.31v-3.54h2.5v5.33
			c0,0.16,0.07,0.25,0.22,0.25h0.19c0.11,0,0.17-0.07,0.19-0.22l0.06-0.65l0.67,0.25l-0.13,0.77c-0.04,0.29-0.21,0.43-0.51,0.43
			h-0.77c-0.38,0-0.58-0.17-0.58-0.52v-5.05h-1.22v2.93c0,1.48-0.46,2.45-1.38,2.93L38.52,117.44z"/>
	</g>
</g>
<g>
	<g>
		<path class="st4" d="M51.74,111.23c-1.47,0.31-3.39,0.47-5.76,0.5v2.92c0,1.24-0.24,2.29-0.73,3.15l-0.33-0.26
			c0.43-0.82,0.64-1.78,0.64-2.89v-3.29c2.37,0.03,4.35-0.13,5.94-0.48L51.74,111.23z M49.25,114.84c0.02,0.58-0.04,1.09-0.16,1.51
			c-0.13,0.42-0.44,0.76-0.95,1.01c-0.5,0.25-1.06,0.41-1.65,0.48l-0.22-0.39c0.75-0.08,1.31-0.23,1.69-0.46
			c0.38-0.23,0.62-0.46,0.71-0.71s0.15-0.73,0.18-1.44C48.85,114.84,49.25,114.84,49.25,114.84z M52.12,113.07h-2.87v0.87h2.04v2.56
			h-0.42v-2.18h-3.69v2.19h-0.41v-2.57h2.04v-0.87h-2.5v-0.4h2.5v-0.75h0.43v0.75h2.87L52.12,113.07L52.12,113.07z M52.14,117.45
			l-0.23,0.35c-0.73-0.34-1.59-0.62-2.58-0.84l0.24-0.37C50.75,116.91,51.61,117.2,52.14,117.45z"/>
		<path class="st4" d="M60.3,117.59h-7.1v-0.32h3.33v-0.52H53.7v-0.31h2.84v-0.5h-2.6v-1.83h5.65v1.83h-2.62v0.5h2.85v0.31h-2.85
			v0.52h3.33C60.3,117.27,60.3,117.59,60.3,117.59z M60.23,113.65H53.3v-0.32h6.94L60.23,113.65L60.23,113.65z M59.6,112.89h-5.66
			v-1.81h5.66V112.89z M56.54,114.88v-0.45h-2.2v0.45H56.54z M56.54,115.63v-0.45h-2.2v0.45H56.54z M59.17,111.84v-0.45h-4.81v0.45
			H59.17z M59.17,112.58v-0.45h-4.81v0.45H59.17z M59.17,114.88v-0.45h-2.2v0.45H59.17z M59.17,115.63v-0.45h-2.2v0.45H59.17z"/>
	</g>
</g>
<g>
	<path class="st4" d="M186.72,112.14h0.74v-1.08h0.61c0.17,0.02,0.18,0.08,0.03,0.18v0.89h1.44v0.58h-1.44v0.8h1.98v0.59h-1.98v0.58
		h1.5v2.28c0,0.29-0.15,0.43-0.45,0.43h-0.48l-0.13-0.59h0.29c0.08,0,0.13-0.04,0.13-0.12v-1.42h-0.86V118h-0.64v-2.74h-0.77v2.13
		h-0.64v-2.71h1.41v-0.58h-2.01v-0.59h2.01v-0.8h-0.99c-0.13,0.23-0.27,0.44-0.42,0.65l-0.51-0.34c0.32-0.43,0.63-1,0.93-1.69
		l0.58,0.18c0.08,0.08,0.05,0.13-0.1,0.15L186.72,112.14z M190.36,116.42v-4.59h0.61c0.17,0.02,0.18,0.08,0.03,0.18v4.4
		L190.36,116.42L190.36,116.42z M191.61,117.41c0.08,0,0.13-0.04,0.13-0.12v-6.01h0.61c0.17,0.02,0.18,0.08,0.03,0.18v6.1
		c0,0.29-0.15,0.43-0.45,0.43h-0.74l-0.16-0.58C191.03,117.41,191.61,117.41,191.61,117.41z"/>
	<path class="st4" d="M194.29,114.66v-0.58h1.66v2.62c0.43,0.39,0.95,0.58,1.57,0.58h3.93l-0.13,0.59h-3.68
		c-0.94,0-1.64-0.26-2.11-0.77c-0.34,0.39-0.71,0.68-1.12,0.86l-0.32-0.68c0.38-0.08,0.79-0.29,1.22-0.62v-2H194.29z M195.57,112.75
		c-0.26-0.39-0.58-0.73-0.96-1.02l0.48-0.46c0.49,0.37,0.82,0.7,0.99,0.99L195.57,112.75z M201.36,114.05h-5.15v-0.59h2.27v-0.95
		h-1.02c-0.15,0.29-0.34,0.56-0.58,0.83l-0.54-0.37c0.4-0.43,0.77-1.06,1.09-1.88l0.64,0.18c0.08,0.08,0.05,0.13-0.1,0.15
		c-0.06,0.18-0.14,0.35-0.22,0.49h0.74v-0.99h0.61c0.17,0.02,0.18,0.08,0.03,0.18v0.8h1.63v0.59h-1.63v0.95h2.24v0.61H201.36z
		 M200.47,116.88h-0.64v-0.21h-2.17v0.34h-0.64v-2.46h3.45V116.88z M199.83,116.08v-0.96h-2.17v0.96H199.83z"/>
	<path class="st4" d="M203.5,114.26l-0.45-0.55c0.87-0.62,1.47-1.51,1.79-2.68l0.74,0.18c0.08,0.08,0.05,0.13-0.1,0.15l-0.26,0.62
		h4.51v0.59h-2.33v1.05h1.92v0.58h-1.92v1.39h2.69v0.58h-2.69v1.85h-0.64v-1.85h-3.68v-0.58h1.44v-1.97h2.24v-1.05H205
		C204.6,113.25,204.1,113.81,203.5,114.26z M205.17,115.59h1.6v-1.39h-1.6V115.59z"/>
	<path class="st4" d="M212.65,114.33c-0.34,0.47-0.57,0.76-0.67,0.86l-0.45-0.55c0.81-0.94,1.34-2.12,1.6-3.54l0.64,0.21
		c0.13,0.06,0.12,0.11-0.03,0.15c-0.11,0.58-0.28,1.12-0.51,1.63l0.13,0.03c0.06,0.06,0.04,0.12-0.06,0.19v4.74h-0.64v-3.72H212.65z
		 M213.48,114.08c0.66-0.64,1.09-1.39,1.28-2.25l0.64,0.28c0.11,0.08,0.08,0.12-0.06,0.12c-0.17,0.82-0.63,1.61-1.38,2.37
		L213.48,114.08z M217.22,117.16l0.16-2.5h-1.09c-0.19,1.44-0.96,2.6-2.3,3.48l-0.42-0.59c1.24-0.76,1.92-1.72,2.05-2.9h-1.02v-0.58
		h3.45l-0.16,2.99c-0.02,0.59-0.23,0.89-0.64,0.89h-0.83l-0.1-0.58H217C217.15,117.38,217.22,117.3,217.22,117.16z M218.56,114.45
		c-0.9-0.74-1.48-1.61-1.76-2.62h-1.76v-0.59h2.3c0.26,1.15,0.83,2.02,1.73,2.62L218.56,114.45z"/>
</g>
<text transform="matrix(1.0385 0 0 1 232.2725 117.3751)" class="st4 st8 st6"> </text>
<g>
	<path class="st4" d="M40.41,125.6c0-1,0.02-2,0.03-2.57h-0.01c-0.2,0.93-0.71,3.16-1.15,4.85h-0.59c-0.33-1.47-0.86-3.87-1.07-4.86
		H37.6c0.03,0.62,0.06,1.8,0.06,2.72v2.14h-0.58v-5.36h0.91c0.45,1.68,0.89,3.73,1.02,4.42h0.01c0.1-0.58,0.65-2.81,1.09-4.42h0.9
		v5.36h-0.6V125.6z"/>
	<path class="st4" d="M44.02,124.94v2.24c0,0.25,0.02,0.58,0.03,0.71H43.5c-0.02-0.09-0.04-0.3-0.04-0.46
		c-0.15,0.33-0.47,0.53-0.98,0.53c-0.8,0-1.09-0.6-1.09-1.16c0-0.73,0.51-1.28,1.6-1.28c0.19,0,0.31,0,0.43,0.01V125
		c0-0.31-0.06-0.71-0.62-0.71c-0.61,0-0.65,0.42-0.67,0.69h-0.58c0.02-0.57,0.3-1.16,1.27-1.16
		C43.63,123.82,44.02,124.2,44.02,124.94L44.02,124.94z M43.44,125.99c-0.1-0.02-0.22-0.02-0.41-0.02c-0.74,0-1.04,0.34-1.04,0.79
		c0,0.37,0.2,0.71,0.65,0.71c0.61,0,0.8-0.41,0.8-1.26V125.99z"/>
	<path class="st4" d="M45.2,126.74c0.03,0.43,0.26,0.75,0.74,0.75c0.45,0,0.67-0.26,0.67-0.63c0-0.41-0.22-0.6-0.76-0.81
		c-0.86-0.32-1.11-0.61-1.11-1.17c0-0.53,0.34-1.06,1.19-1.06c0.93,0,1.19,0.61,1.2,1.14h-0.59c-0.01-0.19-0.06-0.67-0.63-0.67
		c-0.39,0-0.57,0.23-0.57,0.55s0.15,0.48,0.72,0.69c0.8,0.3,1.16,0.58,1.16,1.27c0,0.73-0.47,1.16-1.31,1.16
		c-0.86,0-1.28-0.5-1.3-1.22L45.2,126.74L45.2,126.74z"/>
	<path class="st4" d="M48.31,126.74c0.03,0.43,0.26,0.75,0.74,0.75c0.45,0,0.67-0.26,0.67-0.63c0-0.41-0.22-0.6-0.76-0.81
		c-0.86-0.32-1.11-0.61-1.11-1.17c0-0.53,0.34-1.06,1.19-1.06c0.93,0,1.19,0.61,1.2,1.14h-0.59c-0.01-0.19-0.06-0.67-0.63-0.67
		c-0.39,0-0.57,0.23-0.57,0.55s0.15,0.48,0.72,0.69c0.8,0.3,1.16,0.58,1.16,1.27c0,0.73-0.47,1.16-1.31,1.16
		c-0.86,0-1.28-0.5-1.3-1.22L48.31,126.74L48.31,126.74z"/>
</g>
<g>
	<path class="st4" d="M169.09,125.6c0-1,0.02-2,0.03-2.57h-0.01c-0.2,0.93-0.71,3.16-1.15,4.85h-0.59
		c-0.33-1.47-0.86-3.87-1.07-4.86h-0.02c0.03,0.62,0.06,1.8,0.06,2.72v2.14h-0.58v-5.36h0.91c0.45,1.68,0.89,3.73,1.02,4.42h0.01
		c0.1-0.58,0.65-2.81,1.09-4.42h0.9v5.36h-0.6L169.09,125.6L169.09,125.6z"/>
	<path class="st4" d="M172.69,124.94v2.24c0,0.25,0.02,0.58,0.03,0.71h-0.55c-0.02-0.09-0.04-0.3-0.04-0.46
		c-0.15,0.33-0.47,0.53-0.98,0.53c-0.8,0-1.09-0.6-1.09-1.16c0-0.73,0.51-1.28,1.6-1.28c0.19,0,0.31,0,0.43,0.01V125
		c0-0.31-0.06-0.71-0.62-0.71c-0.61,0-0.65,0.42-0.67,0.69h-0.58c0.02-0.57,0.3-1.16,1.27-1.16
		C172.3,123.82,172.69,124.2,172.69,124.94L172.69,124.94z M172.12,125.99c-0.1-0.02-0.22-0.02-0.41-0.02
		c-0.74,0-1.04,0.34-1.04,0.79c0,0.37,0.2,0.71,0.65,0.71c0.61,0,0.8-0.41,0.8-1.26V125.99z"/>
	<path class="st4" d="M173.59,125.13c0-0.82-0.01-1.05-0.01-1.24h0.58c0.01,0.1,0.02,0.26,0.02,0.52c0.14-0.31,0.42-0.59,0.98-0.59
		c0.6,0,1.07,0.33,1.07,1.22v2.85h-0.61v-2.74c0-0.49-0.17-0.82-0.64-0.82c-0.56,0-0.8,0.35-0.8,1.17v2.38h-0.6L173.59,125.13
		L173.59,125.13z"/>
	<path class="st4" d="M179.88,126.79c0,0.5,0,0.9,0.01,1.1h-0.57c-0.02-0.12-0.03-0.27-0.03-0.53c-0.15,0.4-0.5,0.6-0.99,0.6
		c-0.48,0-1.04-0.19-1.04-1.2v-2.88h0.6v2.74c0,0.51,0.15,0.82,0.62,0.82c0.46,0,0.79-0.27,0.79-1.13v-2.43h0.6v2.91H179.88z"/>
	<path class="st4" d="M180.98,127.89v-3.51h-0.54v-0.49h0.54v-0.55c0-0.59,0.22-1.11,0.98-1.11c0.11,0,0.26,0.02,0.34,0.04v0.51
		c-0.07-0.02-0.17-0.03-0.27-0.03c-0.33,0-0.44,0.2-0.44,0.6v0.54h0.65v0.49h-0.65v3.51H180.98z"/>
	<path class="st4" d="M185.29,124.94v2.24c0,0.25,0.02,0.58,0.03,0.71h-0.55c-0.02-0.09-0.04-0.3-0.04-0.46
		c-0.15,0.33-0.47,0.53-0.98,0.53c-0.8,0-1.09-0.6-1.09-1.16c0-0.73,0.51-1.28,1.6-1.28c0.19,0,0.31,0,0.43,0.01V125
		c0-0.31-0.06-0.71-0.62-0.71c-0.61,0-0.65,0.42-0.67,0.69h-0.58c0.02-0.57,0.3-1.16,1.27-1.16
		C184.9,123.82,185.28,124.2,185.29,124.94L185.29,124.94z M184.71,125.99c-0.1-0.02-0.22-0.02-0.41-0.02
		c-0.74,0-1.04,0.34-1.04,0.79c0,0.37,0.2,0.71,0.65,0.71c0.61,0,0.8-0.41,0.8-1.26V125.99z"/>
	<path class="st4" d="M188.67,126.67c-0.02,0.21-0.11,1.29-1.32,1.29c-1.09,0-1.38-0.92-1.38-2.08c0-1.12,0.38-2.06,1.43-2.06
		c1.21,0,1.26,1.07,1.27,1.26h-0.61c-0.01-0.16-0.06-0.76-0.66-0.76s-0.82,0.63-0.82,1.55c0,1,0.23,1.59,0.79,1.59
		c0.6,0,0.67-0.58,0.7-0.79H188.67z"/>
	<path class="st4" d="M188.69,123.89h0.59v-1.07h0.59v1.07h0.72v0.49h-0.72V127c0,0.27,0.06,0.45,0.38,0.45
		c0.1,0,0.22-0.01,0.29-0.02v0.44c-0.14,0.05-0.35,0.07-0.49,0.07c-0.49,0-0.77-0.19-0.77-0.82v-2.74h-0.59L188.69,123.89
		L188.69,123.89z"/>
	<path class="st4" d="M193.76,126.79c0,0.5,0,0.9,0.01,1.1h-0.57c-0.02-0.12-0.03-0.27-0.03-0.53c-0.15,0.4-0.5,0.6-0.99,0.6
		c-0.48,0-1.04-0.19-1.04-1.2v-2.88h0.6v2.74c0,0.51,0.15,0.82,0.62,0.82c0.46,0,0.79-0.27,0.79-1.13v-2.43h0.6v2.91H193.76z"/>
	<path class="st4" d="M194.79,125.25c0-0.64,0-1.08-0.01-1.36h0.58c0.01,0.1,0.02,0.29,0.02,0.71c0.18-0.48,0.58-0.77,1.1-0.77v0.64
		c-0.71,0.02-1.09,0.45-1.09,1.19v2.23h-0.6L194.79,125.25L194.79,125.25z"/>
	<path class="st4" d="M196.93,123.89h0.6v4h-0.6V123.89z M196.93,122.27h0.6v0.83h-0.6V122.27z"/>
	<path class="st4" d="M198.82,125.13c0-0.82-0.01-1.05-0.01-1.24h0.58c0.01,0.1,0.02,0.26,0.02,0.52c0.14-0.31,0.42-0.59,0.98-0.59
		c0.6,0,1.07,0.33,1.07,1.22v2.85h-0.61v-2.74c0-0.49-0.17-0.82-0.64-0.82c-0.56,0-0.8,0.35-0.8,1.17v2.38h-0.6L198.82,125.13
		L198.82,125.13z"/>
	<path class="st4" d="M205.11,127.63c0,1.05-0.26,1.79-1.46,1.79c-1.07,0-1.3-0.67-1.33-1.1h0.61c0.02,0.22,0.15,0.61,0.74,0.61
		c0.7,0,0.84-0.49,0.84-1.3v-0.37c-0.15,0.41-0.5,0.61-0.97,0.61c-0.84,0-1.25-0.68-1.25-1.94c0-1.44,0.55-2.11,1.34-2.11
		c0.56,0,0.8,0.26,0.88,0.52c0-0.18,0.02-0.37,0.03-0.46h0.57c-0.01,0.21-0.01,0.61-0.01,1.15L205.11,127.63L205.11,127.63z
		 M202.92,125.92c0,0.97,0.28,1.44,0.79,1.44c0.64,0,0.82-0.61,0.82-1.54c0-0.94-0.13-1.49-0.77-1.49
		C203.21,124.33,202.92,124.88,202.92,125.92z"/>
	<path class="st4" d="M208.3,127.89v-2.04c0-0.05-0.01-0.1-0.03-0.14l-1.41-3.18h0.69c0.38,0.91,0.92,2.17,1.08,2.65
		c0.19-0.52,0.74-1.79,1.1-2.65h0.65l-1.43,3.18c-0.02,0.03-0.03,0.08-0.03,0.14v2.04H208.3z"/>
	<path class="st4" d="M211.03,126c0,0.78,0.14,1.47,0.8,1.47c0.65,0,0.74-0.59,0.76-0.72h0.59c-0.01,0.1-0.13,1.21-1.35,1.21
		s-1.39-1.08-1.39-2.08c0-1.27,0.45-2.07,1.43-2.07c1.09,0,1.35,0.87,1.35,1.87c0,0.08,0,0.21-0.01,0.31h-2.18V126z M212.6,125.54
		c0-0.69-0.15-1.23-0.76-1.23c-0.76,0-0.8,0.95-0.81,1.23H212.6z"/>
	<path class="st4" d="M216.66,124.94v2.24c0,0.25,0.02,0.58,0.03,0.71h-0.55c-0.02-0.09-0.04-0.3-0.04-0.46
		c-0.15,0.33-0.47,0.53-0.98,0.53c-0.8,0-1.09-0.6-1.09-1.16c0-0.73,0.51-1.28,1.6-1.28c0.19,0,0.31,0,0.43,0.01V125
		c0-0.31-0.06-0.71-0.62-0.71c-0.61,0-0.65,0.42-0.67,0.69h-0.58c0.02-0.57,0.3-1.16,1.27-1.16
		C216.28,123.82,216.66,124.2,216.66,124.94L216.66,124.94z M216.09,125.99c-0.1-0.02-0.22-0.02-0.41-0.02
		c-0.74,0-1.04,0.34-1.04,0.79c0,0.37,0.2,0.71,0.65,0.71c0.61,0,0.8-0.41,0.8-1.26V125.99z"/>
	<path class="st4" d="M217.56,125.25c0-0.64,0-1.08-0.01-1.36h0.58c0.01,0.1,0.02,0.29,0.02,0.71c0.18-0.48,0.58-0.77,1.1-0.77v0.64
		c-0.71,0.02-1.09,0.45-1.09,1.19v2.23h-0.6L217.56,125.25L217.56,125.25z"/>
</g>
<g>
	<path class="st4" d="M183.57,28.79c0.77-1.18,1.35-2.39,1.73-3.64l0.79,0.66c-0.53,1.52-1.01,2.68-1.47,3.49
		c0.07,0.3,0.02,0.42-0.16,0.35L183.57,28.79z M184.46,21.77c0.63,0.3,1.22,0.66,1.78,1.06l-0.73,1.06
		c-0.56-0.44-1.14-0.84-1.73-1.21L184.46,21.77z M185.04,18.74c0.7,0.37,1.26,0.74,1.68,1.11l-0.73,1.01
		c-0.56-0.47-1.12-0.88-1.68-1.21L185.04,18.74z M191.86,22.33h2.26l0.21-0.2l0.79,0.56l-0.21,0.2c-0.49,1.85-1.17,3.27-2.04,4.24
		c0.7,0.64,1.61,1.11,2.73,1.41l-0.47,1.11c-1.08-0.3-2.04-0.89-2.88-1.77c-1.01,0.91-2.03,1.58-3.04,2.02l-0.58-1.01
		c1.19-0.47,2.15-1.08,2.88-1.82c-0.42-0.61-0.79-1.3-1.1-2.07c-0.35,0.47-0.73,0.86-1.15,1.16l-0.58-0.96
		c1.29-1.11,2.2-2.59,2.73-4.44h-2.46l0.94,0.45c0.11,0.07,0.04,0.13-0.21,0.2c-0.28,0.74-0.65,1.43-1.1,2.07
		c0.38,0.14,0.37,0.25-0.05,0.35v6.01h-0.89v-5.1c-0.25,0.34-0.49,0.62-0.73,0.86l-0.68-0.91c1.26-1.08,2.13-2.39,2.62-3.94h-1.78
		V19.8h3.41v-1.62h1c0.28,0.03,0.3,0.13,0.05,0.3v1.31h3.83v0.96h-3.67l0.89,0.4c0.11,0.07,0.04,0.15-0.21,0.25L191.86,22.33z
		 M190.91,24.2c0.28,0.78,0.7,1.52,1.26,2.22c0.73-0.91,1.28-2,1.62-3.28h-2.25C191.37,23.57,191.16,23.93,190.91,24.2z
		 M192.17,25.36c-0.35-0.5-0.65-0.91-0.89-1.21l0.73-0.61c0.45,0.44,0.77,0.83,0.94,1.16L192.17,25.36z"/>
</g>
<text transform="matrix(1.0385 0 0 1 196.7061 28.7423)" class="st4 st8 st9"> </text>
<g>
	<path class="st4" d="M212.26,19.06h-9.99v5.73c0,1.73-0.39,3.25-1.17,4.55l-0.56-0.42c0.68-1.37,1.02-2.83,1.02-4.4V18.4h10.7
		V19.06z M212.31,29.08h-10.04v-0.66h4.43v-4.99h-3.64v-0.64h3.64v-3.17h0.7v3.17h3.97v0.64h-3.97v4.99h4.91V29.08z M211.23,27.24
		l-0.6,0.38c-0.49-0.87-1.12-1.75-1.91-2.65l0.58-0.36C210.02,25.38,210.67,26.25,211.23,27.24z"/>
</g>
<text transform="matrix(1.0385 0 0 1 213.1152 28.7423)" class="st4 st8 st9"> </text>
<g>
	<path class="st4" d="M220.98,24.6c-0.42,0.13-0.91,0.3-1.47,0.5V29c0,0.54-0.28,0.81-0.84,0.81h-1l-0.21-0.96h0.79
		c0.14,0,0.21-0.07,0.21-0.2v-3.18c-0.39,0.1-0.8,0.24-1.26,0.4c-0.18,0.3-0.3,0.35-0.37,0.15l-0.31-1.11
		c0.45-0.1,1.1-0.27,1.94-0.5v-2.93h-1.63v-0.96h1.63v-2.27h1c0.24,0,0.26,0.1,0.05,0.3v1.97h1.1v0.96h-1.1v2.63
		c0.45-0.13,0.87-0.27,1.26-0.4L220.98,24.6z M221.14,19.75h2.99v-1.51h1c0.28,0.03,0.3,0.13,0.05,0.3v1.21h3.51v1.97h-1.05v-1.01
		h-5.46v1.26h-1.05v-2.22H221.14z M221.82,24.1l-0.52-0.86c1.26-0.27,1.89-0.99,1.89-2.17h1c0.28,0.03,0.3,0.13,0.05,0.3
		C224.09,22.75,223.29,23.66,221.82,24.1z M225.6,24.1l0.89,0.61c-1.12,0.91-2.05,1.95-2.78,3.13c-0.32,0.5-0.28,0.76,0.1,0.76h3.15
		c0.32,0,0.51-0.12,0.58-0.35l0.21-0.71l1.05,0.25l-0.37,0.96c-0.21,0.54-0.56,0.81-1.05,0.81h-3.46c-1.01,0-1.52-0.25-1.52-0.76
		c0-0.47,0.12-0.91,0.37-1.31c0.45-0.77,1.03-1.51,1.73-2.22h-2.62V24.3h3.51L225.6,24.1z M225.12,21.01h1
		c0.28,0.03,0.3,0.13,0.05,0.3v1.21c0,0.24,0.12,0.35,0.37,0.35h0.42c0.17,0,0.3-0.12,0.37-0.35l0.16-0.56l1,0.2l-0.26,0.76
		c-0.17,0.51-0.49,0.76-0.94,0.76h-1.21c-0.63,0-0.94-0.3-0.94-0.91v-1.76H225.12z"/>
</g>
<text transform="matrix(1.0385 0 0 1 230.0283 28.7423)" class="st4 st8 st9"> </text>
<g>
	<path class="st4" d="M233.69,24.85l1.63-0.46v-2.58h-1.47v-0.96h1.47v-2.58h1c0.28,0.03,0.3,0.14,0.05,0.3v2.27h1.15v0.96h-1.15
		v2.32l1.05-0.35l0.16,0.86l-1.21,0.45v3.94c0,0.54-0.28,0.81-0.84,0.81h-0.89l-0.16-1.11h0.63c0.14,0,0.21-0.07,0.21-0.2v-3.13
		l-1.05,0.4c-0.07,0.24-0.14,0.29-0.21,0.15L233.69,24.85z M238.05,18.59h7.13v3.28h-1.05v-0.25h-5.04v3.59
		c0,1.85-0.49,3.37-1.47,4.54L236.68,29c0.91-0.88,1.36-2.17,1.36-3.89v-6.52H238.05z M239.1,19.55v1.11h5.04v-1.11H239.1z
		 M240.35,26.42v1.97h1.52v-2.93h-1.21h-0.79v-3.03h0.84c0.28,0.03,0.3,0.13,0.05,0.3v1.92h1.1v-2.63h0.84
		c0.28,0.03,0.3,0.13,0.05,0.3v2.32h1.21v-2.22h0.84c0.28,0.03,0.3,0.13,0.05,0.3v2.73h-2.1v2.93h1.68v-2.27h0.84
		c0.28,0.03,0.3,0.13,0.05,0.3v3.23h-0.89V29.2h-4.09v0.66h-0.89v-3.74h0.84C240.58,26.15,240.6,26.25,240.35,26.42z"/>
</g>
<text transform="matrix(1.0385 0 0 1 246.9297 28.7423)" class="st4 st8 st9"> </text>
<g>
	<path class="st4" d="M254.22,29.8h-1.05v-5.15c-0.49,1.08-1.1,2-1.84,2.78l-0.68-1.11c1.4-1.38,2.2-2.81,2.41-4.29h-2.1v-0.96h2.2
		v-2.68h1c0.35,0.03,0.37,0.13,0.05,0.3v2.37h1.84v0.96h-1.84v1.51c0.63,0.27,1.26,0.64,1.89,1.11l-0.58,1.16
		c-0.42-0.44-0.86-0.84-1.31-1.21L254.22,29.8L254.22,29.8z M254.53,28.84c1.29-0.57,1.94-1.83,1.94-3.79v-5.81h4.09v8.74
		c0,0.27,0.12,0.4,0.37,0.4h0.32c0.17,0,0.28-0.12,0.31-0.35l0.1-1.06l1.1,0.4l-0.21,1.26c-0.07,0.47-0.35,0.71-0.84,0.71h-1.26
		c-0.63,0-0.94-0.29-0.94-0.86V20.2h-1.99V25c0,2.42-0.75,4.02-2.26,4.8L254.53,28.84z"/>
</g>
<g>
	<path class="st4" d="M184.23,31.74h0.83v3.54h1.91v-3.54h0.83v8.44h-0.83v-4.16h-1.91v4.16h-0.83V31.74z"/>
	<path class="st4" d="M189.98,33.77c0.46,2.39,0.9,4.66,0.96,5.39h0.02c0.14-1.02,0.62-3.26,1.02-5.39h0.84l-1.48,6.76
		c-0.39,1.77-0.92,1.9-1.64,1.9c-0.16,0-0.34-0.03-0.46-0.05l0.01-0.75c0.06,0.02,0.25,0.04,0.36,0.04c0.5,0,0.71-0.22,0.91-1.27
		l-1.45-6.64L189.98,33.77L189.98,33.77z"/>
	<path class="st4" d="M197.33,31.36v7.19c0,0.71,0,1.26,0.01,1.62h-0.79c-0.02-0.11-0.04-0.47-0.04-0.64
		c-0.16,0.39-0.47,0.74-1.16,0.74c-1.1,0-1.39-0.84-1.39-2.07v-2.65c0-1.14,0.47-1.89,1.49-1.89c0.6,0,0.91,0.25,1.04,0.49v-2.79
		H197.33z M194.8,35.61v2.62c0,0.87,0.22,1.31,0.78,1.31c0.73,0,0.91-0.68,0.91-1.6V35.8c0-0.71-0.07-1.39-0.88-1.39
		C195.04,34.41,194.8,34.87,194.8,35.61z"/>
	<path class="st4" d="M199.24,35.95c0-1.03,0-1.63-0.01-2.18h0.8c0.01,0.18,0.03,0.54,0.03,0.99c0.24-0.77,0.81-1.06,1.39-1.08v0.99
		c-0.84,0.01-1.37,0.53-1.37,1.65v3.85h-0.83v-4.22H199.24z"/>
	<path class="st4" d="M205.86,39.12c0,0.45,0.01,0.88,0.03,1.06h-0.78c-0.03-0.16-0.06-0.42-0.07-0.53
		c-0.21,0.49-0.63,0.63-1.09,0.63c-0.95,0-1.33-0.8-1.33-1.8v-0.11c0-1.42,0.89-1.95,2.08-1.95c0.1,0,0.19,0,0.32,0v-1.06
		c0-0.6-0.11-0.99-0.66-0.99s-0.7,0.4-0.7,0.93v0.19h-0.82V35.3c0-0.89,0.36-1.63,1.55-1.63c1.13,0,1.47,0.7,1.47,1.63V39.12z
		 M205.04,37.07c-0.09,0-0.25,0-0.35,0c-0.79,0-1.25,0.32-1.25,1.28v0.11c0,0.6,0.19,1.1,0.73,1.1c0.65,0,0.87-0.51,0.87-1.5
		L205.04,37.07L205.04,37.07z"/>
	<path class="st4" d="M210.71,38.48c0,0.8,0,1.4,0.01,1.7h-0.79c-0.02-0.11-0.04-0.44-0.04-0.68c-0.2,0.58-0.61,0.78-1.18,0.78
		c-0.53,0-1.29-0.19-1.29-1.63v-4.88h0.83v4.67c0,0.8,0.22,1.11,0.74,1.11c0.48,0,0.88-0.27,0.88-1.59v-4.18h0.83L210.71,38.48
		L210.71,38.48z"/>
	<path class="st4" d="M212.62,40.18v-8.81h0.83v8.81H212.62z"/>
	<path class="st4" d="M215.4,33.77h0.83v6.41h-0.83V33.77z M215.41,31.36h0.83v1.29h-0.83V31.36z"/>
	<path class="st4" d="M221.17,38.18v0.09c0,1.09-0.29,2.01-1.61,2.01c-1.24,0-1.57-0.84-1.57-2.13v-2.56c0-1.09,0.42-1.92,1.62-1.92
		c1.3,0,1.55,0.92,1.55,1.79v0.26h-0.83v-0.21c0-0.6-0.1-1.15-0.74-1.15c-0.54,0-0.77,0.39-0.77,1.2v2.74
		c0,0.61,0.12,1.27,0.75,1.27c0.55,0,0.75-0.34,0.75-1.22v-0.18h0.85V38.18z"/>
	<path class="st4" d="M225.75,37.12v1.07c0,0.67,0.14,1.39,0.83,1.39c0.66,0,0.79-0.5,0.79-1.15v-0.06h0.82v0.05
		c0,0.76-0.19,1.86-1.61,1.86c-1.32,0-1.64-0.85-1.64-2.15v-2.46c0-0.99,0.37-2.01,1.67-2.01c1.25,0,1.61,0.92,1.61,2.01
		c0,0.34,0,1.08,0,1.44h-2.47V37.12z M227.39,36.45v-0.84c0-0.6-0.09-1.25-0.8-1.25c-0.68,0-0.83,0.55-0.83,1.26v0.83H227.39z"/>
	<path class="st4" d="M229.91,33.77c0.51,1.34,0.77,1.98,0.88,2.33h0.01c0.16-0.44,0.5-1.19,0.92-2.33h0.87l-1.33,2.99l1.35,3.42
		h-0.9c-0.54-1.42-0.81-2.24-0.92-2.59h-0.01c-0.14,0.38-0.47,1.29-0.94,2.59h-0.88l1.36-3.32L229,33.77H229.91z"/>
	<path class="st4" d="M236.72,38.18v0.09c0,1.09-0.29,2.01-1.61,2.01c-1.24,0-1.57-0.84-1.57-2.13v-2.56c0-1.09,0.42-1.92,1.62-1.92
		c1.3,0,1.55,0.92,1.55,1.79v0.26h-0.83v-0.21c0-0.6-0.1-1.15-0.74-1.15c-0.54,0-0.77,0.39-0.77,1.2v2.74
		c0,0.61,0.12,1.27,0.75,1.27c0.55,0,0.75-0.34,0.75-1.22v-0.18h0.85V38.18z"/>
	<path class="st4" d="M241.29,39.12c0,0.45,0.01,0.88,0.03,1.06h-0.78c-0.03-0.16-0.06-0.42-0.07-0.53
		c-0.21,0.49-0.63,0.63-1.09,0.63c-0.95,0-1.33-0.8-1.33-1.8v-0.11c0-1.42,0.89-1.95,2.08-1.95c0.1,0,0.19,0,0.32,0v-1.06
		c0-0.6-0.11-0.99-0.66-0.99s-0.7,0.4-0.7,0.93v0.19h-0.82V35.3c0-0.89,0.36-1.63,1.55-1.63c1.13,0,1.47,0.7,1.47,1.63V39.12z
		 M240.47,37.07c-0.09,0-0.26,0-0.35,0c-0.79,0-1.25,0.32-1.25,1.28v0.11c0,0.6,0.19,1.1,0.73,1.1c0.65,0,0.87-0.51,0.87-1.5
		L240.47,37.07L240.47,37.07z"/>
	<path class="st4" d="M243.21,33.77c0.2,1.04,0.84,4.32,0.98,5.48h0.01c0.1-1.04,0.82-4.36,1.02-5.48h0.84l-1.41,6.41h-0.96
		l-1.38-6.41H243.21z"/>
	<path class="st4" d="M250.4,39.12c0,0.45,0.01,0.88,0.03,1.06h-0.78c-0.03-0.16-0.06-0.42-0.07-0.53
		c-0.21,0.49-0.63,0.63-1.09,0.63c-0.95,0-1.33-0.8-1.33-1.8v-0.11c0-1.42,0.89-1.95,2.08-1.95c0.1,0,0.19,0,0.32,0v-1.06
		c0-0.6-0.11-0.99-0.66-0.99s-0.7,0.4-0.7,0.93v0.19h-0.82V35.3c0-0.89,0.36-1.63,1.55-1.63c1.13,0,1.47,0.7,1.47,1.63V39.12z
		 M249.58,37.07c-0.09,0-0.25,0-0.35,0c-0.79,0-1.25,0.32-1.25,1.28v0.11c0,0.6,0.19,1.1,0.73,1.1c0.65,0,0.87-0.51,0.87-1.5
		L249.58,37.07L249.58,37.07z"/>
	<path class="st4" d="M251.3,33.77h0.78v-1.58h0.83v1.58h0.96v0.72h-0.96v4.42c0,0.34,0.07,0.67,0.49,0.67
		c0.13,0,0.33-0.01,0.43-0.04v0.63c-0.19,0.07-0.48,0.09-0.7,0.09c-0.6,0-1.04-0.26-1.04-1.2v-4.57h-0.78v-0.72H251.3z"/>
	<path class="st4" d="M258.38,35.55v2.73c0,1.39-0.68,1.99-1.7,1.99c-1.03,0-1.67-0.58-1.67-1.95v-2.79c0-1.2,0.64-1.87,1.71-1.87
		C257.82,33.67,258.38,34.37,258.38,35.55z M255.86,35.54v2.81c0,0.74,0.26,1.21,0.84,1.21c0.53,0,0.84-0.35,0.84-1.21v-2.81
		c0-0.66-0.24-1.14-0.84-1.14C256.11,34.39,255.86,34.8,255.86,35.54z"/>
	<path class="st4" d="M259.72,35.95c0-1.03,0-1.63-0.01-2.18h0.8c0.01,0.18,0.03,0.54,0.03,0.99c0.24-0.77,0.81-1.06,1.39-1.08v0.99
		c-0.84,0.01-1.37,0.53-1.37,1.65v3.85h-0.83v-4.22H259.72z"/>
</g>
<g>
	<path class="st4" d="M140.31,122.53c0,0.02,0,0.04-0.02,0.05c-0.01,0.01-0.03,0.03-0.05,0.04c-0.03,0.01-0.06,0.02-0.11,0.02
		c-0.04,0-0.1,0.01-0.17,0.01c-0.07,0-0.13,0-0.18-0.01c-0.05,0-0.09-0.01-0.12-0.02s-0.06-0.02-0.08-0.04
		c-0.02-0.02-0.04-0.04-0.05-0.06l-1.52-1.92v1.92c0,0.02-0.01,0.04-0.02,0.05c-0.01,0.01-0.03,0.03-0.05,0.04s-0.06,0.02-0.1,0.02
		c-0.04,0-0.1,0.01-0.16,0.01s-0.12,0-0.16-0.01c-0.04-0.01-0.08-0.01-0.1-0.02c-0.03-0.01-0.04-0.02-0.05-0.04
		c-0.01-0.01-0.01-0.03-0.01-0.05v-5.14c0-0.02,0-0.04,0.01-0.05c0.01-0.02,0.03-0.03,0.05-0.04c0.03-0.01,0.06-0.02,0.1-0.02
		c0.04,0,0.1-0.01,0.16-0.01c0.07,0,0.12,0,0.16,0.01s0.08,0.01,0.1,0.02c0.02,0.01,0.04,0.02,0.05,0.04
		c0.01,0.02,0.02,0.03,0.02,0.05v3.13l1.36-1.44c0.02-0.03,0.04-0.05,0.07-0.06c0.02-0.02,0.05-0.03,0.09-0.04
		c0.03-0.01,0.07-0.02,0.12-0.02c0.05,0,0.1-0.01,0.16-0.01c0.07,0,0.12,0,0.17,0.01c0.05,0,0.08,0.01,0.11,0.02
		c0.03,0.01,0.05,0.02,0.06,0.04c0.01,0.01,0.02,0.03,0.02,0.06s-0.01,0.06-0.03,0.09s-0.05,0.07-0.09,0.11l-1.3,1.25l1.46,1.83
		c0.03,0.04,0.06,0.08,0.07,0.11C140.31,122.48,140.31,122.51,140.31,122.53z"/>
	<path class="st4" d="M144.18,119.23c0,0.09-0.01,0.15-0.04,0.19s-0.06,0.06-0.1,0.06h-0.52c0.09,0.09,0.16,0.19,0.2,0.31
		c0.04,0.11,0.06,0.23,0.06,0.35c0,0.2-0.03,0.38-0.1,0.53s-0.16,0.28-0.29,0.39c-0.12,0.11-0.27,0.19-0.44,0.25
		s-0.36,0.08-0.57,0.08c-0.15,0-0.29-0.02-0.42-0.06s-0.23-0.08-0.31-0.14c-0.05,0.05-0.09,0.1-0.12,0.16
		c-0.03,0.06-0.05,0.13-0.05,0.2c0,0.09,0.04,0.16,0.13,0.22c0.09,0.06,0.2,0.09,0.35,0.1l0.94,0.04c0.18,0,0.34,0.03,0.49,0.07
		c0.15,0.04,0.28,0.1,0.39,0.18s0.19,0.17,0.26,0.29s0.09,0.25,0.09,0.4c0,0.16-0.03,0.31-0.1,0.45s-0.18,0.27-0.32,0.38
		c-0.14,0.11-0.32,0.2-0.54,0.26c-0.22,0.06-0.48,0.09-0.78,0.09c-0.29,0-0.54-0.02-0.74-0.07c-0.2-0.05-0.37-0.11-0.5-0.19
		s-0.23-0.18-0.28-0.29s-0.09-0.24-0.09-0.37c0-0.08,0.01-0.17,0.03-0.25s0.05-0.16,0.1-0.23s0.1-0.14,0.16-0.21
		s0.14-0.13,0.23-0.19c-0.13-0.06-0.23-0.14-0.29-0.24s-0.09-0.2-0.09-0.32c0-0.16,0.03-0.3,0.1-0.42c0.07-0.12,0.15-0.23,0.25-0.33
		c-0.08-0.09-0.15-0.2-0.2-0.32s-0.07-0.26-0.07-0.43c0-0.2,0.04-0.38,0.1-0.53c0.07-0.16,0.17-0.29,0.29-0.4s0.27-0.19,0.44-0.25
		s0.36-0.09,0.56-0.09c0.11,0,0.21,0,0.31,0.02s0.18,0.03,0.27,0.05h1.09c0.04,0,0.08,0.02,0.1,0.06
		C144.17,119.07,144.18,119.14,144.18,119.23z M143.49,122.88c0-0.15-0.06-0.26-0.19-0.34c-0.13-0.08-0.3-0.12-0.51-0.13l-0.93-0.03
		c-0.08,0.06-0.16,0.12-0.21,0.18s-0.1,0.11-0.13,0.17c-0.03,0.05-0.05,0.1-0.07,0.16c-0.01,0.05-0.02,0.1-0.02,0.16
		c0,0.17,0.09,0.29,0.26,0.38c0.18,0.09,0.42,0.13,0.74,0.13c0.2,0,0.37-0.02,0.5-0.06s0.24-0.09,0.33-0.15
		c0.08-0.06,0.14-0.13,0.18-0.21C143.47,123.05,143.49,122.97,143.49,122.88z M143.15,120.14c0-0.24-0.07-0.42-0.2-0.55
		c-0.13-0.13-0.33-0.2-0.57-0.2c-0.13,0-0.24,0.02-0.33,0.06s-0.17,0.1-0.24,0.17c-0.06,0.07-0.11,0.15-0.14,0.25
		s-0.05,0.19-0.05,0.29c0,0.23,0.07,0.41,0.2,0.54c0.13,0.13,0.32,0.2,0.57,0.2c0.13,0,0.24-0.02,0.34-0.06
		c0.1-0.04,0.17-0.1,0.24-0.17c0.06-0.07,0.11-0.15,0.14-0.24C143.14,120.33,143.15,120.24,143.15,120.14z"/>
</g>
<g>
	<path class="st4" d="M139.17,94.66c0,0.02,0,0.04-0.01,0.06s-0.03,0.03-0.05,0.04c-0.03,0.01-0.06,0.02-0.11,0.03
		s-0.1,0.01-0.18,0.01c-0.09,0-0.17,0-0.23-0.01s-0.1-0.02-0.13-0.04c-0.03-0.02-0.05-0.04-0.07-0.07l-1.9-2.49v2.49
		c0,0.02,0,0.04-0.02,0.05s-0.03,0.03-0.06,0.04s-0.06,0.02-0.11,0.02c-0.04,0.01-0.1,0.01-0.17,0.01c-0.06,0-0.12,0-0.16-0.01
		c-0.04-0.01-0.08-0.01-0.11-0.02s-0.05-0.02-0.06-0.04c-0.01-0.02-0.02-0.03-0.02-0.05V89.9c0-0.02,0.01-0.04,0.02-0.05
		c0.01-0.02,0.03-0.03,0.06-0.04s0.06-0.02,0.11-0.02c0.05-0.01,0.1-0.01,0.16-0.01c0.07,0,0.12,0,0.17,0.01
		c0.04,0.01,0.08,0.01,0.11,0.02c0.03,0.01,0.04,0.02,0.06,0.04c0.01,0.01,0.02,0.03,0.02,0.05v2.21l1.83-2.21
		c0.02-0.02,0.03-0.04,0.06-0.06c0.02-0.02,0.05-0.03,0.08-0.04s0.07-0.02,0.11-0.02s0.1-0.01,0.17-0.01s0.13,0,0.17,0.01
		s0.08,0.02,0.1,0.03c0.03,0.01,0.04,0.02,0.05,0.04c0.01,0.02,0.01,0.03,0.01,0.05c0,0.03-0.01,0.07-0.03,0.1s-0.05,0.08-0.1,0.14
		l-1.71,1.98l1.85,2.36c0.04,0.07,0.07,0.11,0.08,0.14C139.17,94.62,139.17,94.64,139.17,94.66z"/>
	<path class="st4" d="M145.11,91.19c0,0.02,0,0.04-0.01,0.07s-0.01,0.06-0.03,0.1l-1.06,3.29c-0.01,0.03-0.02,0.05-0.04,0.07
		c-0.02,0.02-0.04,0.03-0.07,0.04c-0.03,0.01-0.07,0.02-0.13,0.02c-0.05,0-0.12,0.01-0.2,0.01s-0.15,0-0.21-0.01
		c-0.06-0.01-0.1-0.01-0.13-0.02c-0.03-0.01-0.06-0.02-0.07-0.04c-0.02-0.02-0.03-0.04-0.04-0.07l-0.75-2.51l-0.01-0.03l-0.01,0.03
		l-0.7,2.51c-0.01,0.03-0.02,0.05-0.04,0.07c-0.02,0.02-0.04,0.03-0.08,0.04c-0.04,0.01-0.08,0.02-0.13,0.02s-0.12,0.01-0.2,0.01
		s-0.15,0-0.2-0.01s-0.09-0.01-0.13-0.02c-0.03-0.01-0.06-0.02-0.07-0.04c-0.02-0.02-0.03-0.04-0.04-0.07l-1.05-3.29
		c-0.01-0.04-0.02-0.07-0.03-0.1c0-0.03-0.01-0.05-0.01-0.07s0-0.04,0.02-0.06s0.03-0.03,0.05-0.03c0.03-0.01,0.06-0.02,0.1-0.02
		c0.04,0,0.09,0,0.16,0s0.13,0,0.18,0.01s0.08,0.01,0.1,0.02c0.02,0.01,0.04,0.02,0.05,0.04s0.02,0.04,0.03,0.06l0.87,2.86
		l0.01,0.04l0.01-0.04l0.8-2.86c0-0.02,0.01-0.04,0.03-0.06c0.01-0.02,0.03-0.03,0.05-0.04s0.06-0.01,0.1-0.02s0.1-0.01,0.16-0.01
		s0.12,0,0.16,0.01c0.04,0,0.07,0.01,0.1,0.02c0.02,0.01,0.04,0.02,0.05,0.04s0.02,0.03,0.02,0.05l0.86,2.86l0.01,0.04v-0.04
		l0.86-2.86c0.01-0.02,0.01-0.04,0.03-0.06s0.03-0.03,0.06-0.04s0.06-0.01,0.1-0.02s0.1-0.01,0.17-0.01c0.06,0,0.12,0,0.15,0
		c0.04,0,0.07,0.01,0.09,0.02c0.02,0.01,0.04,0.02,0.05,0.04C145.11,91.15,145.11,91.17,145.11,91.19z"/>
</g>
<g>
	<path class="st4" d="M302.3,94.67c0,0.02,0,0.04-0.02,0.05c-0.01,0.01-0.03,0.03-0.05,0.04s-0.06,0.02-0.1,0.02
		s-0.1,0.01-0.16,0.01c-0.07,0-0.12,0-0.16-0.01s-0.08-0.01-0.1-0.02c-0.03-0.01-0.04-0.02-0.05-0.04
		c-0.01-0.01-0.02-0.03-0.02-0.05v-2.11c0-0.15-0.01-0.28-0.04-0.4s-0.07-0.22-0.13-0.31s-0.13-0.15-0.22-0.2
		c-0.09-0.05-0.2-0.07-0.32-0.07c-0.15,0-0.3,0.06-0.46,0.17s-0.32,0.28-0.51,0.5v2.42c0,0.02,0,0.04-0.02,0.05
		c-0.01,0.01-0.03,0.03-0.05,0.04s-0.06,0.02-0.1,0.02s-0.1,0.01-0.16,0.01s-0.11,0-0.16-0.01c-0.04-0.01-0.08-0.01-0.1-0.02
		c-0.03-0.01-0.04-0.02-0.05-0.04c-0.01-0.01-0.01-0.03-0.01-0.05v-2.11c0-0.15-0.01-0.28-0.04-0.4s-0.07-0.22-0.13-0.31
		s-0.13-0.15-0.22-0.2c-0.09-0.05-0.2-0.07-0.32-0.07c-0.15,0-0.31,0.06-0.46,0.17s-0.32,0.28-0.5,0.5v2.42
		c0,0.02-0.01,0.04-0.02,0.05c-0.01,0.01-0.03,0.03-0.05,0.04s-0.06,0.02-0.1,0.02s-0.1,0.01-0.16,0.01s-0.12,0-0.16-0.01
		s-0.08-0.01-0.1-0.02c-0.03-0.01-0.04-0.02-0.05-0.04c-0.01-0.01-0.01-0.03-0.01-0.05V91.2c0-0.02,0-0.04,0.01-0.05
		s0.02-0.03,0.05-0.04c0.02-0.01,0.05-0.02,0.09-0.02s0.09-0.01,0.15-0.01s0.11,0,0.15,0.01c0.04,0,0.07,0.01,0.09,0.02
		c0.02,0.01,0.04,0.02,0.05,0.04c0.01,0.01,0.01,0.03,0.01,0.05v0.46c0.2-0.22,0.4-0.38,0.59-0.48c0.19-0.1,0.38-0.15,0.58-0.15
		c0.15,0,0.28,0.02,0.4,0.05c0.12,0.03,0.22,0.08,0.31,0.14s0.17,0.13,0.23,0.22c0.06,0.08,0.12,0.18,0.16,0.28
		c0.12-0.12,0.23-0.23,0.34-0.32s0.21-0.16,0.31-0.21c0.1-0.05,0.2-0.09,0.29-0.12s0.19-0.04,0.29-0.04c0.23,0,0.43,0.04,0.58,0.12
		s0.28,0.18,0.38,0.31s0.17,0.28,0.21,0.46c0.04,0.18,0.06,0.36,0.06,0.56v2.19H302.3z"/>
	<path class="st4" d="M305.31,91.13c0,0.14-0.03,0.27-0.09,0.38s-0.14,0.21-0.24,0.29s-0.23,0.14-0.39,0.18s-0.32,0.06-0.51,0.06
		c-0.13,0-0.24-0.01-0.34-0.02c-0.1-0.02-0.19-0.03-0.26-0.06c-0.07-0.02-0.13-0.04-0.17-0.07c-0.04-0.02-0.07-0.04-0.08-0.05
		c-0.01-0.01-0.02-0.02-0.03-0.03s-0.01-0.03-0.02-0.05c0-0.02-0.01-0.04-0.01-0.07s0-0.07,0-0.11c0-0.06,0.01-0.1,0.02-0.14
		c0.01-0.04,0.04-0.05,0.07-0.05c0.02,0,0.05,0.01,0.09,0.04c0.04,0.02,0.1,0.05,0.16,0.07s0.14,0.05,0.23,0.07s0.19,0.03,0.3,0.03
		c0.2,0,0.36-0.04,0.47-0.12s0.16-0.19,0.16-0.33c0-0.07-0.02-0.14-0.05-0.2s-0.08-0.11-0.15-0.15s-0.15-0.07-0.24-0.09
		c-0.1-0.02-0.21-0.03-0.34-0.03h-0.29c-0.02,0-0.04,0-0.05-0.01c-0.01-0.01-0.02-0.02-0.03-0.04c-0.01-0.02-0.02-0.04-0.02-0.07
		s-0.01-0.06-0.01-0.1s0-0.07,0.01-0.09c0-0.03,0.01-0.05,0.02-0.06c0.01-0.02,0.02-0.03,0.03-0.04s0.03-0.01,0.05-0.01h0.28
		c0.22,0,0.39-0.04,0.51-0.13s0.18-0.2,0.18-0.35c0-0.12-0.04-0.21-0.12-0.28s-0.2-0.1-0.36-0.1c-0.1,0-0.19,0.01-0.27,0.04
		s-0.16,0.05-0.22,0.08c-0.07,0.03-0.12,0.06-0.16,0.08s-0.07,0.04-0.09,0.04c-0.03,0-0.05-0.02-0.06-0.05
		c-0.01-0.03-0.02-0.08-0.02-0.16c0-0.03,0-0.06,0-0.08c0-0.02,0.01-0.04,0.01-0.06s0.01-0.03,0.02-0.04
		c0.01-0.01,0.02-0.02,0.03-0.04c0.02-0.02,0.05-0.04,0.11-0.07s0.13-0.06,0.21-0.08c0.08-0.03,0.17-0.05,0.26-0.07
		c0.1-0.02,0.2-0.03,0.3-0.03c0.17,0,0.31,0.02,0.43,0.05s0.23,0.09,0.31,0.15c0.08,0.07,0.14,0.15,0.18,0.24s0.06,0.19,0.06,0.3
		c0,0.18-0.05,0.34-0.16,0.47c-0.1,0.13-0.26,0.21-0.46,0.25v0.01c0.11,0.01,0.21,0.03,0.3,0.07s0.17,0.09,0.24,0.15
		c0.07,0.06,0.12,0.14,0.16,0.22C305.29,90.94,305.31,91.03,305.31,91.13z"/>
</g>
<g>
	<path class="st4" d="M13.91,149.44h1.43c0.87,0,1.48,0.53,1.48,1.49c0,0.95-0.54,1.55-1.57,1.55h-0.74v2.32H13.9L13.91,149.44
		L13.91,149.44z M14.53,151.98h0.67c0.67,0,1.01-0.34,1.01-1.06c0-0.59-0.32-0.99-0.94-0.99h-0.74V151.98z"/>
	<path class="st4" d="M17.66,152.16c0-0.64,0-1.08-0.01-1.36h0.58c0.01,0.1,0.02,0.29,0.02,0.71c0.18-0.48,0.58-0.77,1.1-0.77v0.64
		c-0.71,0.02-1.09,0.45-1.09,1.19v2.23h-0.6V152.16z"/>
	<path class="st4" d="M22.45,152.75c0,1.41-0.49,2.12-1.43,2.12c-0.96,0-1.43-0.69-1.43-2.11c0-1.39,0.56-2.03,1.45-2.03
		C21.96,150.73,22.45,151.41,22.45,152.75z M20.21,152.76c0,1.09,0.28,1.6,0.82,1.6s0.81-0.52,0.81-1.61c0-1.02-0.26-1.53-0.81-1.53
		C20.5,151.23,20.21,151.68,20.21,152.76z"/>
	<path class="st4" d="M25.87,149.18v4.59c0,0.39,0,0.79,0.01,1.03H25.3c-0.01-0.1-0.02-0.37-0.02-0.54
		c-0.13,0.35-0.39,0.61-0.98,0.61c-0.86,0-1.23-0.71-1.23-2.11c0-1.28,0.49-2.02,1.36-2.02c0.54,0,0.75,0.22,0.84,0.42v-1.97
		L25.87,149.18L25.87,149.18z M23.68,152.76c0,1.15,0.27,1.59,0.78,1.59c0.64,0,0.82-0.53,0.82-1.62c0-1.17-0.17-1.5-0.77-1.5
		C24.02,151.24,23.68,151.66,23.68,152.76z"/>
	<path class="st4" d="M29.51,153.7c0,0.5,0,0.9,0.01,1.1h-0.57c-0.02-0.12-0.03-0.27-0.03-0.53c-0.15,0.4-0.5,0.6-0.99,0.6
		c-0.48,0-1.04-0.19-1.04-1.2v-2.88h0.6v2.74c0,0.51,0.15,0.82,0.62,0.82c0.46,0,0.79-0.27,0.79-1.13v-2.43h0.6L29.51,153.7
		L29.51,153.7z"/>
	<path class="st4" d="M33.04,153.57c-0.02,0.21-0.11,1.29-1.32,1.29c-1.09,0-1.38-0.92-1.38-2.08c0-1.12,0.38-2.06,1.43-2.06
		c1.21,0,1.26,1.07,1.27,1.26h-0.61c-0.01-0.16-0.06-0.76-0.66-0.76c-0.6,0-0.82,0.63-0.82,1.55c0,1,0.23,1.59,0.79,1.59
		c0.6,0,0.67-0.58,0.7-0.79H33.04z"/>
	<path class="st4" d="M33.05,150.79h0.59v-1.07h0.59v1.07h0.72v0.49h-0.72v2.62c0,0.27,0.06,0.45,0.38,0.45
		c0.1,0,0.22-0.01,0.29-0.02v0.44c-0.14,0.05-0.35,0.07-0.49,0.07c-0.49,0-0.77-0.19-0.77-0.82v-2.74h-0.59V150.79z"/>
	<path class="st4" d="M36.86,150.79h0.6v4h-0.6V150.79z M36.87,149.18h0.6v0.83h-0.6V149.18z"/>
	<path class="st4" d="M41.35,149.18v4.59c0,0.39,0,0.79,0.01,1.03h-0.58c-0.01-0.1-0.02-0.37-0.02-0.54
		c-0.13,0.35-0.39,0.61-0.98,0.61c-0.86,0-1.23-0.71-1.23-2.11c0-1.28,0.49-2.02,1.36-2.02c0.54,0,0.75,0.22,0.84,0.42v-1.97
		L41.35,149.18L41.35,149.18z M39.16,152.76c0,1.15,0.27,1.59,0.78,1.59c0.64,0,0.82-0.53,0.82-1.62c0-1.17-0.17-1.5-0.77-1.5
		C39.5,151.24,39.16,151.66,39.16,152.76z"/>
	<path class="st4" d="M42.78,152.9c0,0.78,0.14,1.47,0.8,1.47c0.65,0,0.74-0.59,0.76-0.72h0.59c-0.01,0.1-0.13,1.21-1.35,1.21
		c-1.22,0-1.39-1.08-1.39-2.08c0-1.27,0.45-2.07,1.43-2.07c1.09,0,1.35,0.87,1.35,1.87c0,0.08,0,0.21-0.01,0.31h-2.18V152.9z
		 M44.36,152.45c0-0.69-0.15-1.23-0.76-1.23c-0.76,0-0.8,0.95-0.81,1.23H44.36z"/>
	<path class="st4" d="M46,152.03c0-0.82-0.01-1.05-0.01-1.24h0.58c0.01,0.1,0.02,0.26,0.02,0.52c0.14-0.31,0.42-0.59,0.98-0.59
		c0.6,0,1.07,0.33,1.07,1.22v2.85h-0.6v-2.74c0-0.49-0.17-0.82-0.64-0.82c-0.56,0-0.8,0.35-0.8,1.17v2.38H46V152.03z"/>
	<path class="st4" d="M49.17,150.79h0.59v-1.07h0.59v1.07h0.72v0.49h-0.72v2.62c0,0.27,0.06,0.45,0.38,0.45
		c0.1,0,0.22-0.01,0.29-0.02v0.44c-0.14,0.05-0.35,0.07-0.49,0.07c-0.49,0-0.77-0.19-0.77-0.82v-2.74h-0.59V150.79z"/>
	<path class="st4" d="M51.64,150.79h0.6v4h-0.6V150.79z M51.64,149.18h0.6v0.83h-0.6V149.18z"/>
	<path class="st4" d="M53.59,154.79v-3.51h-0.54v-0.49h0.54v-0.55c0-0.59,0.22-1.11,0.98-1.11c0.11,0,0.26,0.02,0.34,0.04v0.51
		c-0.07-0.02-0.17-0.03-0.27-0.03c-0.33,0-0.44,0.2-0.44,0.6v0.54h0.65v0.49H54.2v3.51L53.59,154.79L53.59,154.79z"/>
	<path class="st4" d="M55.49,150.79h0.6v4h-0.6V150.79z M55.49,149.18h0.6v0.83h-0.6V149.18z"/>
	<path class="st4" d="M59.87,153.57c-0.02,0.21-0.11,1.29-1.32,1.29c-1.09,0-1.38-0.92-1.38-2.08c0-1.12,0.38-2.06,1.43-2.06
		c1.21,0,1.26,1.07,1.27,1.26h-0.61c-0.01-0.16-0.06-0.76-0.66-0.76s-0.82,0.63-0.82,1.55c0,1,0.23,1.59,0.79,1.59
		c0.6,0,0.67-0.58,0.7-0.79H59.87z"/>
	<path class="st4" d="M62.81,151.84v2.24c0,0.25,0.02,0.58,0.03,0.71h-0.55c-0.02-0.09-0.04-0.3-0.04-0.46
		c-0.15,0.33-0.47,0.53-0.98,0.53c-0.8,0-1.09-0.6-1.09-1.16c0-0.73,0.51-1.28,1.6-1.28c0.19,0,0.31,0,0.43,0.01v-0.53
		c0-0.31-0.06-0.71-0.62-0.71c-0.61,0-0.65,0.42-0.67,0.69h-0.58c0.02-0.57,0.3-1.16,1.27-1.16
		C62.42,150.73,62.81,151.11,62.81,151.84L62.81,151.84z M62.24,152.9c-0.1-0.02-0.22-0.02-0.41-0.02c-0.74,0-1.04,0.34-1.04,0.79
		c0,0.37,0.2,0.71,0.65,0.71c0.61,0,0.8-0.41,0.8-1.26V152.9z"/>
	<path class="st4" d="M63.19,150.79h0.59v-1.07h0.59v1.07h0.72v0.49h-0.72v2.62c0,0.27,0.06,0.45,0.38,0.45
		c0.1,0,0.22-0.01,0.29-0.02v0.44c-0.14,0.05-0.35,0.07-0.49,0.07c-0.49,0-0.77-0.19-0.77-0.82v-2.74h-0.59
		C63.19,151.28,63.19,150.79,63.19,150.79z"/>
	<path class="st4" d="M65.66,150.79h0.6v4h-0.6V150.79z M65.66,149.18h0.6v0.83h-0.6V149.18z"/>
	<path class="st4" d="M70.2,152.75c0,1.41-0.49,2.12-1.43,2.12c-0.96,0-1.43-0.69-1.43-2.11c0-1.39,0.56-2.03,1.45-2.03
		C69.7,150.73,70.2,151.41,70.2,152.75z M67.95,152.76c0,1.09,0.28,1.6,0.82,1.6s0.81-0.52,0.81-1.61c0-1.02-0.26-1.53-0.81-1.53
		C68.25,151.23,67.95,151.68,67.95,152.76z"/>
	<path class="st4" d="M71.02,152.03c0-0.82-0.01-1.05-0.01-1.24h0.58c0.01,0.1,0.02,0.26,0.02,0.52c0.14-0.31,0.42-0.59,0.98-0.59
		c0.6,0,1.07,0.33,1.07,1.22v2.85h-0.6v-2.74c0-0.49-0.17-0.82-0.64-0.82c-0.56,0-0.8,0.35-0.8,1.17v2.38h-0.6V152.03z"/>
	<path class="st4" d="M77.46,154.79v-5.36h0.75c1.54,3.71,1.75,4.21,1.83,4.45h0.01c-0.04-0.72-0.05-1.53-0.05-2.4v-2.05h0.57v5.36
		h-0.72c-1.6-3.9-1.8-4.39-1.86-4.6h-0.01c0.04,0.67,0.05,1.55,0.05,2.51v2.09L77.46,154.79L77.46,154.79z"/>
	<path class="st4" d="M84.4,153.7c0,0.5,0,0.9,0.01,1.1h-0.57c-0.02-0.12-0.03-0.27-0.03-0.53c-0.15,0.4-0.5,0.6-0.99,0.6
		c-0.48,0-1.04-0.19-1.04-1.2v-2.88h0.6v2.74c0,0.51,0.15,0.82,0.62,0.82c0.46,0,0.79-0.27,0.79-1.13v-2.43h0.6L84.4,153.7
		L84.4,153.7z"/>
	<path class="st4" d="M85.43,152c0-0.71,0-1.01-0.01-1.2H86c0.02,0.12,0.02,0.33,0.02,0.51c0.17-0.35,0.46-0.58,0.93-0.58
		c0.44,0,0.73,0.18,0.86,0.6c0.15-0.32,0.46-0.6,1.01-0.6c0.52,0,1,0.24,1,1.16v2.9h-0.59v-2.8c0-0.41-0.12-0.75-0.59-0.75
		c-0.53,0-0.71,0.45-0.71,0.99v2.57h-0.6v-2.79c0-0.5-0.17-0.76-0.58-0.76c-0.5,0-0.73,0.44-0.73,1.04v2.51h-0.6L85.43,152
		L85.43,152z"/>
	<path class="st4" d="M90.81,149.18h0.6v2.15c0.13-0.31,0.42-0.6,0.99-0.6c0.79,0,1.21,0.64,1.21,1.97c0,1.24-0.34,2.17-1.33,2.17
		c-0.53,0-0.77-0.25-0.89-0.54c0,0.13-0.01,0.31-0.02,0.47H90.8c0.01-0.21,0.01-0.61,0.01-1.1V149.18z M93.01,152.71
		c0-1-0.24-1.46-0.76-1.46c-0.64,0-0.85,0.55-0.85,1.56c0,0.96,0.16,1.55,0.79,1.55C92.74,154.35,93.01,153.83,93.01,152.71z"/>
	<path class="st4" d="M94.83,152.9c0,0.78,0.14,1.47,0.8,1.47c0.65,0,0.74-0.59,0.76-0.72h0.59c-0.01,0.1-0.13,1.21-1.35,1.21
		s-1.39-1.08-1.39-2.08c0-1.27,0.45-2.07,1.43-2.07c1.09,0,1.35,0.87,1.35,1.87c0,0.08,0,0.21-0.01,0.31h-2.18V152.9z M96.41,152.45
		c0-0.69-0.15-1.23-0.76-1.23c-0.76,0-0.8,0.95-0.81,1.23H96.41z"/>
	<path class="st4" d="M98.06,152.16c0-0.64,0-1.08-0.01-1.36h0.58c0.01,0.1,0.02,0.29,0.02,0.71c0.18-0.48,0.58-0.77,1.1-0.77v0.64
		c-0.71,0.02-1.09,0.45-1.09,1.19v2.23h-0.6V152.16z"/>
</g>
<g>
	<path class="st4" d="M45.37,143.21h-6.11c0.03,1.62-0.21,2.74-0.73,3.37l-0.36-0.26c0.26-0.36,0.43-0.77,0.52-1.24
		s0.13-1.24,0.12-2.29h1.72c-0.23-0.51-0.51-1.03-0.84-1.54l0.25-0.21h-1.56v-0.41h3.37c-0.08-0.2-0.22-0.47-0.42-0.8l0.42-0.12
		c0.14,0.23,0.3,0.54,0.47,0.92h3.01v0.41H43.7l0.26,0.24c-0.36,0.73-0.63,1.24-0.82,1.51h2.22v0.42H45.37z M43.62,141.03h-3.54
		c0.37,0.62,0.67,1.21,0.91,1.76h1.7C42.97,142.35,43.28,141.77,43.62,141.03z"/>
	<path class="st4" d="M49.5,146.58h-0.42v-0.56h-1.81v0.56h-0.44v-3.45h2.67V146.58z M49.07,145.62v-2.08h-1.8v2.08H49.07z
		 M52.51,142.23h-4.82v-2.34h4.82V142.23z M52.08,141.84v-1.55h-3.96v1.55H52.08z M53.16,146.58h-0.44v-0.56H50.9v0.56h-0.44v-3.45
		h2.69L53.16,146.58L53.16,146.58z M52.73,145.62v-2.08H50.9v2.08H52.73z"/>
</g>
<text transform="matrix(1.0385 0 0 1 54.0508 146.1886)" class="st4 st8 st6"> </text>
<g>
	<path class="st4" d="M58.73,145.14c-0.42,0.36-0.89,0.71-1.38,1.04l-0.22-0.3c0.03-0.06,0.05-0.17,0.05-0.32v-3.33h-0.93v-0.38
		h1.36v3.67c0.3-0.2,0.62-0.45,0.96-0.75L58.73,145.14z M58.01,140.98l-0.34,0.21c-0.23-0.41-0.57-0.85-1.02-1.32l0.33-0.25
		C57.4,140.07,57.74,140.52,58.01,140.98z M60.29,144.33c-0.53,0.93-1.06,1.68-1.6,2.24l-0.34-0.23c0.58-0.61,1.11-1.35,1.59-2.22
		L60.29,144.33z M62.85,143.55h-3.97v-3.67h3.97V143.55z M62.43,143.15v-2.89H59.3v2.89H62.43z M63.43,146.35l-0.35,0.21
		c-0.42-0.68-0.99-1.42-1.7-2.21l0.34-0.23C62.43,144.89,63,145.64,63.43,146.35z"/>
</g>
<text transform="matrix(1.0385 0 0 1 63.8789 146.1886)" class="st4 st8 st6"> </text>
<g>
	<path class="st4" d="M67.61,142.41h-0.2l-0.94,0.02c-0.04,0-0.06-0.02-0.06-0.05l0.02-0.69v-0.83l-0.02-0.68
		c0-0.04,0.02-0.06,0.06-0.06l0.94,0.02h1.18l0.94-0.02c0.04,0,0.06,0.02,0.06,0.06l-0.02,0.68v0.83l0.02,0.69
		c0,0.04-0.02,0.05-0.06,0.05l-0.94-0.02h-0.61c-0.05,0.67-0.07,1-0.07,1.01h0.75l1.02-0.02c0.04,0,0.06,0.02,0.06,0.06
		c-0.02,0.21-0.03,0.45-0.04,0.74c-0.03,0.58-0.08,1.08-0.16,1.49c-0.09,0.56-0.36,0.84-0.8,0.84c-0.15,0-0.33-0.01-0.54-0.03
		c-0.07,0-0.11-0.01-0.12-0.03s-0.02-0.05-0.03-0.11c-0.01-0.08-0.04-0.18-0.09-0.28c0.3,0.06,0.56,0.09,0.77,0.09
		c0.16,0,0.27-0.08,0.34-0.23c0.05-0.09,0.09-0.24,0.12-0.46c0.08-0.51,0.12-1.1,0.14-1.76h-1.47c-0.09,0.69-0.26,1.25-0.5,1.7
		c-0.22,0.4-0.53,0.78-0.94,1.15c-0.05,0.04-0.08,0.07-0.09,0.07c-0.02,0-0.05-0.02-0.1-0.07c-0.08-0.07-0.15-0.13-0.23-0.17
		c0.47-0.35,0.82-0.75,1.06-1.21c0.21-0.4,0.36-0.89,0.44-1.47h-0.28l-1.01,0.01c-0.04,0-0.06-0.02-0.06-0.05v-0.24
		c0-0.04,0.02-0.05,0.06-0.05l1.01,0.02h0.31C67.59,143.12,67.6,142.78,67.61,142.41z M66.79,142.1h2.43v-1.65h-2.43V142.1z
		 M70.67,140.41c0.14,0.01,0.28,0.02,0.42,0.04c0.05,0.01,0.07,0.03,0.07,0.05s0,0.04-0.02,0.06c-0.01,0.03-0.02,0.05-0.02,0.06
		c-0.02,0.06-0.03,0.33-0.03,0.8v2.13l0.02,1c0,0.04-0.02,0.06-0.06,0.06h-0.27c-0.04,0-0.06-0.02-0.06-0.06l0.02-1v-2.11
		C70.73,140.91,70.71,140.57,70.67,140.41z M71.22,146.15c0.22,0.03,0.47,0.04,0.77,0.04c0.18,0,0.3-0.03,0.35-0.08
		c0.06-0.05,0.08-0.16,0.08-0.32v-5.05c0-0.43-0.02-0.73-0.06-0.91c0.17,0.01,0.31,0.02,0.43,0.05c0.06,0.01,0.09,0.03,0.09,0.06
		c0,0.02-0.02,0.07-0.05,0.14c-0.03,0.07-0.04,0.29-0.04,0.65v4.05l0.01,1.07c0,0.29-0.07,0.48-0.21,0.58
		c-0.09,0.06-0.2,0.09-0.31,0.11c-0.12,0.02-0.31,0.03-0.57,0.03c-0.04,0-0.1,0-0.2,0c-0.06,0-0.1-0.01-0.12-0.02
		c-0.01-0.01-0.02-0.05-0.04-0.11C71.33,146.33,71.29,146.23,71.22,146.15z"/>
</g>
<text transform="matrix(1.0385 0 0 1 73.7012 146.1886)" class="st4 st8 st6"> </text>
<g>
	<path class="st4" d="M76.94,145.17c0.36-0.62,0.63-1.18,0.8-1.69h-2.05v-0.58h7.39v0.58h-4.61c-0.09,0.25-0.17,0.46-0.26,0.65h3.81
		c-0.17,1.23-0.41,2.04-0.7,2.43c-0.17,0.21-0.49,0.29-0.96,0.25l-0.86-0.09l-0.03-0.68l0.99,0.09c0.21,0.02,0.37-0.08,0.48-0.31
		c0.04-0.1,0.14-0.47,0.29-1.11h-3.2c-0.08,0.21-0.2,0.43-0.35,0.68L76.94,145.17z M81.1,142.43v-0.22h-3.42v0.28h-0.64v-2.46h4.7
		v2.4L81.1,142.43L81.1,142.43z M77.67,140.61v1.02h3.42v-1.02H77.67z"/>
</g>
<g>
	<path class="st4" d="M111.06,175.84v8.91h-1.33v-0.89h-8.84v1.11h-1.33v-9.57h1.27c0.38,0.07,0.4,0.22,0.06,0.45v6.79h3.7v-9.57
		h1.27c0.38,0.07,0.4,0.22,0.06,0.45v9.13h3.82v-7.24h1.27C111.39,175.47,111.41,175.62,111.06,175.84z"/>
	<path class="st4" d="M121.1,174.23c-1.46,0.04-2.89,0.04-4.28,0l-0.23-0.89c3.97,0.04,6.92-0.15,8.84-0.56l0.64,1
		c0.08,0.19-0.06,0.22-0.41,0.11l-3.41,0.22V175h5.61v0.89h-5.61v0.83h3.93v4.29h-3.93v1h4.34v0.89h-4.34v1.11h5.78v0.89H115.2
		v-0.89h5.9v-1.11h-4.45v-0.89h4.45v-1h-1.97h-1.91v-4.29h3.87v-0.83h-5.67V175h5.67v-0.77H121.1z M118.21,178.51h2.89v-0.89h-2.89
		V178.51z M118.21,180.13h2.89v-0.95h-2.89V180.13z M122.25,178.51h2.95v-0.89h-2.95V178.51z M125.2,180.13v-0.95h-2.95v0.95H125.2z
		"/>
	<path class="st4" d="M144.54,183.86l-0.35,1.06h-6.36c-1.54,0-2.79-0.45-3.76-1.34c-0.73,0.89-1.46,1.54-2.2,1.95l-0.75-1.11
		c0.81-0.41,1.54-0.98,2.2-1.73c-0.73-1.19-1.21-2.17-1.44-2.95l0.98-0.22c0.19,0.59,0.54,1.3,1.04,2.12
		c0.35-0.93,0.52-1.84,0.52-2.73v-0.5h-1.21l-0.52,0.72l-1.1-0.45c0.85-1.37,1.62-2.75,2.31-4.12h-2.37v-1.06h2.6l0.23-0.28
		l1.16,0.83c0.08,0.07,0,0.15-0.23,0.22l-1.56,3.06h1.85v0.83c0,1.82-0.31,3.32-0.92,4.51c0.77,0.78,1.98,1.17,3.64,1.17h6.24
		V183.86z M139.11,175.79v-0.95h-2.72v-0.89h2.72v-1.39h0.92c0.31,0.04,0.33,0.15,0.06,0.33v1.06h3.01v1.84h1.16v0.89h-1.16v1.89
		h-3.01v0.78h3.18v0.89h-3.18v1.06h3.87v0.89h-3.87v1.22h-0.98v-1.22h-3.41v-0.89h3.41v-1.06h-2.66v-0.89h2.66v-0.78h-2.72v-0.89
		h2.72v-1h-3.76v-0.89H139.11z M142.11,174.84h-2.02v0.95h2.02V174.84z M142.11,176.68h-2.02v1h2.02V176.68z"/>
	<path class="st4" d="M151.45,185.3h-1.16v-5.68c-0.54,1.19-1.21,2.21-2.02,3.06l-0.75-1.22c1.54-1.52,2.43-3.1,2.66-4.73h-2.31
		v-1.06h2.43v-2.95h1.1c0.38,0.04,0.41,0.15,0.06,0.33v2.62h2.02v1.06h-2.02v1.67c0.69,0.3,1.39,0.71,2.08,1.22l-0.64,1.28
		c-0.46-0.48-0.94-0.93-1.45-1.34V185.3z M151.8,184.25c1.42-0.63,2.14-2.02,2.14-4.17v-6.4h4.51v9.63c0,0.3,0.13,0.45,0.41,0.45
		h0.35c0.19,0,0.31-0.13,0.35-0.39l0.12-1.17l1.21,0.45l-0.23,1.39c-0.08,0.52-0.38,0.78-0.92,0.78h-1.39
		c-0.69,0-1.04-0.32-1.04-0.95v-9.13h-2.2v5.29c0,2.67-0.83,4.43-2.49,5.29L151.8,184.25z"/>
	<path class="st4" d="M168.19,175.62h-3.87v-1.06h4.16c0.12-0.45,0.21-1.11,0.29-2l1.5,0.28c0.15,0.15,0.1,0.24-0.17,0.28
		l-0.29,1.45h6.94v1.06h-7.17c-0.15,0.52-0.33,0.95-0.52,1.28h5.72v7.4c0,0.59-0.31,0.89-0.92,0.89h-1.33l-0.29-1.06h1.16
		c0.15,0,0.23-0.07,0.23-0.22v-1.5h-5.03v2.95h-1.16v-6.12c-0.93,0.93-1.91,1.69-2.95,2.28l-0.69-1.17
		C166.07,179.13,167.54,177.55,168.19,175.62z M173.63,179.07v-1.11h-5.03v1.11H173.63z M168.6,180.13v1.22h5.03v-1.22H168.6z"/>
	<path class="st4" d="M182.56,177.57l1.16-3.39h-1.97v11.13h-1.16v-12.19h3.47l0.06-0.22l1.16,0.72l-0.17,0.17l-1.39,3.62
		c1,1.3,1.46,2.47,1.39,3.51c-0.08,1.34-0.56,2-1.45,2h-1.27l-0.29-1.17h1.1c0.5,0,0.73-0.33,0.69-1
		C183.85,179.63,183.41,178.57,182.56,177.57z M189.44,184.19l-4.62,0.95c-0.12,0.26-0.23,0.31-0.35,0.17l-0.4-1.34l1.62-0.22V173
		h6.3v6.29h-2.95c0.12,0.52,0.35,1.15,0.69,1.89c0.92-0.52,1.68-1.08,2.25-1.67l1.04,0.78c0.15,0.22,0.04,0.3-0.35,0.22
		c-0.66,0.56-1.43,1.08-2.31,1.56c0.54,0.78,1.54,1.5,3.01,2.17l-0.69,1.17c-2.58-1.15-4.14-3.19-4.68-6.12h-1.16v4.29l2.43-0.45
		L189.44,184.19z M190.83,174.06h-3.99v1.61h3.99V174.06z M190.83,176.73h-3.99v1.5h3.99V176.73z"/>
	<path class="st4" d="M196.36,179.01c1.77-1.37,3.18-3.19,4.22-5.45l1.27,0.83c0.19,0.19,0.1,0.3-0.29,0.33
		c-1.04,2.04-2.45,3.78-4.22,5.23L196.36,179.01z M198.38,184.58l-0.46-1.34l1.85-0.11c0.85-1.93,1.56-3.82,2.14-5.68l1.39,0.45
		c0.31,0.11,0.25,0.22-0.17,0.33c-0.69,1.63-1.41,3.25-2.14,4.84l4.91-0.33c-0.39-0.63-0.95-1.39-1.68-2.28l1.16-0.5
		c1.04,1.08,2.02,2.47,2.95,4.17l-1.27,0.67c-0.12-0.3-0.31-0.67-0.58-1.11l-7.75,0.78C198.61,184.84,198.49,184.88,198.38,184.58z
		 M205.2,173.56c0.77,2.45,2.23,4.17,4.39,5.18l-0.98,1.17c-2.47-1.41-4.01-3.4-4.62-5.96L205.2,173.56z"/>
	<path class="st4" d="M223.56,185.25h-1.73l-0.17-1.06h1.45c0.15,0,0.23-0.07,0.23-0.22v-9.46h-9.77v-1.06h10.92v10.91
		C224.48,184.95,224.17,185.25,223.56,185.25z M222.23,177.07h-8.67v-1.06h8.67V177.07z M220.84,178.35v4.73h-1.16v-0.39h-3.87v1
		h-1.16v-5.34H220.84z M219.68,179.4h-3.87v2.23h3.87V179.4z"/>
</g>
<line class="st10" x1="64.68" y1="4.87" x2="64.68" y2="4.35"/>
<line class="st10" x1="161.85" y1="4.87" x2="161.85" y2="4.35"/>
<line class="st10" x1="7.91" y1="9.08" x2="65.23" y2="9.08"/>
<polyline class="st2" points="7.91,9.08 7.91,9.61 65.23,9.61 65.23,9.08 7.91,9.08 "/>
<line class="st10" x1="64.68" y1="9.61" x2="64.68" y2="52.71"/>
<polyline class="st2" points="64.68,9.61 64.68,52.71 65.23,52.71 65.23,9.61 64.68,9.61 "/>
<polyline class="st11" points="65.23,52.71 65.23,53.76 310.55,53.76 310.55,52.71 65.23,52.71 "/>
<polyline class="st11" points="64.14,52.71 64.14,75.32 65.23,75.32 65.23,52.71 64.14,52.71 "/>
<polyline class="st11" points="65.23,74.27 65.23,75.32 310.55,75.32 310.55,74.27 65.23,74.27 "/>
<polyline class="st11" points="309.45,53.76 309.45,75.32 310.55,75.32 310.55,53.76 309.45,53.76 "/>
<line class="st10" x1="64.68" y1="75.32" x2="64.68" y2="80.57"/>
<polyline class="st2" points="64.68,75.32 64.68,80.57 65.23,80.57 65.23,75.32 64.68,75.32 "/>
<polyline class="st11" points="65.23,80.57 65.23,81.62 162.4,81.62 162.4,80.57 65.23,80.57 "/>
<polyline class="st11" points="223.2,80.57 223.2,81.62 310.55,81.62 310.55,80.57 223.2,80.57 "/>
<polyline class="st11" points="64.14,80.57 64.14,103.18 65.23,103.18 65.23,80.57 64.14,80.57 "/>
<polyline class="st11" points="65.23,102.13 65.23,103.18 162.4,103.18 162.4,102.13 65.23,102.13 "/>
<polyline class="st11" points="161.31,81.62 161.31,103.18 162.4,103.18 162.4,81.62 161.31,81.62 "/>
<polyline class="st11" points="222.11,80.57 222.11,103.18 223.2,103.18 223.2,80.57 222.11,80.57 "/>
<polyline class="st11" points="223.2,102.13 223.2,103.18 310.55,103.18 310.55,102.13 223.2,102.13 "/>
<polyline class="st11" points="309.45,81.62 309.45,103.18 310.55,103.18 310.55,81.62 309.45,81.62 "/>
<line class="st10" x1="64.68" y1="103.18" x2="64.68" y2="108.43"/>
<polyline class="st2" points="64.68,103.18 64.68,108.43 65.23,108.43 65.23,103.18 64.68,103.18 "/>
<polyline class="st11" points="65.23,108.43 65.23,109.49 162.4,109.49 162.4,108.43 65.23,108.43 "/>
<polyline class="st11" points="223.2,108.43 223.2,109.49 310.55,109.49 310.55,108.43 223.2,108.43 "/>
<polyline class="st11" points="64.14,108.43 64.14,131.04 65.23,131.04 65.23,108.43 64.14,108.43 "/>
<polyline class="st11" points="65.23,129.99 65.23,131.04 162.4,131.04 162.4,129.99 65.23,129.99 "/>
<polyline class="st11" points="161.31,109.49 161.31,131.04 162.4,131.04 162.4,109.49 161.31,109.49 "/>
<polyline class="st11" points="222.11,108.43 222.11,131.04 223.2,131.04 223.2,108.43 222.11,108.43 "/>
<polyline class="st11" points="223.2,129.99 223.2,131.04 310.55,131.04 310.55,129.99 223.2,129.99 "/>
<polyline class="st11" points="309.45,109.49 309.45,131.04 310.55,131.04 310.55,109.49 309.45,109.49 "/>
<polyline class="st11" points="103.56,136.3 103.56,137.35 310.55,137.35 310.55,136.3 103.56,136.3 "/>
<line class="st10" x1="64.68" y1="131.04" x2="64.68" y2="137.35"/>
<polyline class="st2" points="64.68,131.04 64.68,137.35 65.23,137.35 65.23,131.04 64.68,131.04 "/>
<polyline class="st11" points="102.46,136.3 102.46,158.9 103.56,158.9 103.56,136.3 102.46,136.3 "/>
<polyline class="st11" points="103.56,157.85 103.56,158.9 310.55,158.9 310.55,157.85 103.56,157.85 "/>
<polyline class="st11" points="309.45,137.35 309.45,158.9 310.55,158.9 310.55,137.35 309.45,137.35 "/>
<line class="st10" x1="324.58" y1="91.23" x2="325.15" y2="91.23"/>
<line class="st10" x1="324.58" y1="102.85" x2="325.15" y2="102.85"/>
<g>
	<rect x="133.87" y="22.15" class="st4" width="5.27" height="14.06"/>
	<path class="st4" d="M132.33,30.38v-8.23h-5.27c0,0,0.02,8.72,0,8.72c-0.38,2.4-4.4,2.03-4.52-0.15v-8.58h-5.27v8.52
		c0.37,3.47,2.4,5.56,7.5,5.53C129.78,36.44,132.21,33.86,132.33,30.38"/>
	<polygon class="st4" points="110.98,26 115.74,26 115.74,22.15 100.94,22.15 100.94,26 105.7,26 105.7,36.22 110.98,36.22 	"/>
	<polygon class="st4" points="94.52,36.22 99.42,36.22 99.42,22.15 94.41,22.15 94.41,28.98 89.17,22.15 84.36,22.15 84.36,36.22 
		89.37,36.22 89.37,29.35 	"/>
	<path class="st4" d="M76.83,32.53h-5.25l2.6-6.26L76.83,32.53z M83.25,36.22l-5.91-14.06h-6.26l-5.91,14.06h4.88l1.53-3.69
		l1.34,3.69H83.25z"/>
	<polygon class="st4" points="58.79,36.22 64.06,36.22 64.06,22.15 58.79,22.15 58.79,27.2 54.25,27.2 54.25,22.15 49.01,22.15 
		49.01,36.19 54.25,36.19 54.25,31.14 58.79,31.14 	"/>
	<path class="st4" d="M38.84,25.7c-0.02-1,1.68-1.13,2.28-0.87c0.6,0.26,0.96,0.7,1.01,1.27h5.12c-0.05-1.26-0.77-3.01-2.86-3.88
		c-1.44-0.6-3.3-0.65-4.06-0.63c0,0-3-0.09-4.87,1.15s-1.95,2.93-1.97,3.56c-0.03,0.63,0.15,2.71,2.6,3.72
		c1.2,0.5,3.03,0.9,4.1,1.15s2.17,0.45,1.95,1.61c-0.21,1.16-2.03,1.09-2.44,0.92c-0.41-0.18-1.13-0.42-1.26-1.72h-5.39
		c0,0,0.09,2.51,2.32,3.88c1.47,0.9,3.44,1.09,4.97,1.09c0.79,0,1.47-0.05,1.89-0.08c1.25-0.09,3.89-0.75,5.01-2.75
		c1.12-2,0.35-3.91-0.25-4.65c-1.04-1.27-2.39-1.68-4.04-2.07C39.9,26.68,38.86,26.71,38.84,25.7"/>
</g>
<g>
	<path class="st4" d="M280.17,16.97h-8.15v8.15h8.15V16.97z M279.04,23.99h-5.88v-5.88h5.88V23.99z"/>
	<rect x="274.33" y="19.28" class="st4" width="3.54" height="3.54"/>
	<path class="st4" d="M288.44,16.97v8.15h8.15v-8.15H288.44z M295.45,23.99h-5.88v-5.88h5.88V23.99z"/>
	<rect x="290.74" y="19.28" class="st4" width="3.54" height="3.54"/>
	<path class="st4" d="M272.02,41.43h8.15v-8.15h-8.15V41.43z M273.15,34.42h5.88v5.88h-5.88V34.42z"/>
	<rect x="274.33" y="35.59" class="st4" width="3.54" height="3.54"/>
	<rect x="272.02" y="26.29" class="st4" width="2.31" height="1.17"/>
	<polygon class="st4" points="279.02,27.51 280.19,27.51 280.19,28.63 277.87,28.63 277.87,28.79 277.87,29.8 277.87,30.97 
		277.87,32.14 277.87,32.14 279.02,32.14 279.02,32.14 281.38,32.14 281.38,30.97 279.02,30.97 279.02,29.8 281.38,29.8 
		281.38,30.97 282.53,30.97 282.53,29.8 282.53,28.79 282.53,28.63 281.35,28.63 281.35,26.34 280.19,26.34 280.19,26.34 
		279.02,26.34 	"/>
	<polygon class="st4" points="285.97,29.8 285.97,30.97 284.81,30.97 284.81,32.14 283.66,32.14 283.66,33.31 282.53,33.31 
		282.53,34.47 281.38,34.47 281.38,32.14 282.53,32.14 282.53,30.97 283.69,30.97 283.69,29.8 	"/>
	<polygon class="st4" points="288.35,35.59 288.35,34.47 288.35,34.42 288.35,33.3 287.19,33.3 287.19,34.42 283.69,34.42 
		283.69,35.59 284.83,35.59 284.83,36.83 283.69,36.83 283.69,35.59 282.53,35.59 282.53,36.81 281.35,36.81 281.35,37.98 
		282.53,37.98 282.53,39.13 281.35,39.13 281.35,41.43 282.53,41.43 283.63,41.43 283.69,41.43 283.69,39.13 284.83,39.13 
		284.83,37.96 285.98,37.96 285.98,35.59 	"/>
	<polygon class="st4" points="287.13,39.13 287.13,40.3 290.65,40.3 290.65,41.47 294.19,41.47 294.19,40.3 291.79,40.3 
		291.79,39.13 291.79,37.96 290.64,37.96 290.64,39.13 	"/>
	<rect x="284.84" y="40.3" class="st4" width="2.29" height="1.17"/>
	<rect x="285.97" y="28.63" class="st4" width="2.4" height="1.17"/>
	<polygon class="st4" points="295.26,29.8 295.26,30.96 296.41,30.96 296.41,32.13 295.25,32.13 295.25,30.96 294.1,30.96 
		294.1,32.13 292.95,32.13 292.95,30.96 291.8,30.96 291.8,28.63 294.09,28.63 294.09,27.49 292.9,27.49 292.9,26.32 295.24,26.32 
		295.24,27.49 295.24,27.49 295.24,28.63 296.44,28.63 296.44,29.8 	"/>
	<polygon class="st4" points="284.81,32.14 284.81,33.31 285.97,33.31 285.97,32.14 287.12,32.14 287.12,30.97 285.97,30.97 
		285.97,32.14 	"/>
	<rect x="285.98" y="37.96" class="st4" width="1.15" height="1.17"/>
	<rect x="292.95" y="37.96" class="st4" width="1.15" height="1.17"/>
	<rect x="288.35" y="30.97" class="st4" width="1.15" height="1.17"/>
	<polygon class="st4" points="288.37,28.63 289.52,28.63 289.52,27.49 291.85,27.49 291.85,26.32 288.37,26.32 288.37,27.49 
		288.37,27.49 	"/>
	<rect x="272.02" y="28.63" class="st4" width="1.15" height="3.51"/>
	<polygon class="st4" points="282.49,26.34 282.53,26.34 282.53,28.63 283.69,28.63 283.69,27.43 284.84,27.43 284.84,26.34 
		286.56,26.34 286.56,26.34 287.2,26.34 287.2,21.65 286.05,21.65 286.05,22.86 284.84,22.86 284.84,24.02 286.05,24.02 
		286.05,25.19 284.84,25.19 284.84,24.02 283.69,24.02 283.69,25.19 282.5,25.19 282.5,21.67 283.65,21.67 283.65,16.97 
		282.5,16.97 282.5,18.15 281.35,18.15 281.35,20.49 282.5,20.49 282.5,21.65 281.35,21.65 281.35,26.34 	"/>
	<path class="st4" d="M295.25,34.46v1.22h-1.15v-1.22h-1.15v-2.33h-1.15v-1.17h-1.15v1.18h-1.15v3.45h-1.16v1.17h1.05v1.19h1.25
		v-1.19h1.15v-1.17l0,0h1.15l0,0l0,0v1.17h1.15v1.19h1.15v2.33h1.15v-5.83h-1.14V34.46z M291.79,34.42h-1.14V33.3h1.14V34.42z"/>
	<rect x="294.1" y="32.13" class="st4" width="1.15" height="2.33"/>
	<rect x="291.79" y="36.76" class="st4" width="1.15" height="1.19"/>
	<polygon class="st4" points="287.19,18.13 287.19,16.97 286.05,16.97 285.16,16.97 284.84,16.97 284.84,19.34 286.05,19.34 
		286.05,18.13 	"/>
	<rect x="284.84" y="20.49" class="st4" width="1.21" height="1.15"/>
	<rect x="286.05" y="19.34" class="st4" width="1.21" height="1.15"/>
	<rect x="275.48" y="30.97" class="st4" width="1.15" height="1.17"/>
	<polygon class="st4" points="276.64,29.85 276.64,26.34 275.48,26.34 275.48,27.46 274.33,27.46 274.33,30.97 275.48,30.97 
		275.48,29.85 	"/>
</g>
<g>
	<text transform="matrix(1 0 0 1 151.9873 69.4808)" class="st4 st12 st13">{{MODELO}}</text>
</g>
<g>
	<text transform="matrix(1 0 0 1 76.8279 97.679)" class="st4 st12 st13">{{POTENCIA}}</text>
</g>
<g>
	<text transform="matrix(1 0 0 1 236.2694 97.679)" class="st4 st12 st13">{{CAPACIDAD}}</text>
</g>
<g>
	<text transform="matrix(1 0 0 1 72.2357 125.8528)" class="st4 st12 st13">{{PESO}}</text>
</g>
<g>
	<text transform="matrix(1 0 0 1 230.7973 125.8509)" class="st4 st12 st13">{{ANIO}}</text>
</g>
<g>
	<text transform="matrix(1 0 0 1 135.8637 153.1833)" class="st4 st12 st13">{{PIN}}</text>
</g>
</svg>
